<svg width="54" height="54" viewBox="0 0 54 54" fill="none" xmlns="http://www.w3.org/2000/svg">
<path d="M25.418 25.4805H28.582V28.6445H25.418V25.4805Z" fill="white"/>
<path d="M39.6562 7.82495L39.1928 7.36162C39.0232 7.19203 34.9466 3.20679 27 3.20679C19.0534 3.20679 14.9768 7.19192 14.8072 7.36162L14.3438 7.82495V12.8243H0V50.793H54V12.8243H39.6562V7.82495ZM17.5078 9.20891C18.6248 8.34976 21.7665 6.37085 27 6.37085C32.2378 6.37085 35.3734 8.34628 36.4922 9.20838V12.8243H17.5078V9.20891ZM3.16406 47.629V33.3907H22.2539V45.4427L27 43.0697L31.7461 45.4427V33.3907H50.8359V47.629H3.16406ZM25.418 34.8136C25.9293 34.9178 26.4583 34.9727 27 34.9727C27.5417 34.9727 28.0707 34.9178 28.582 34.8136V40.3231L27 39.5321L25.418 40.3231V34.8136ZM27 31.8086C24.383 31.8086 22.2539 29.6796 22.2539 27.0626C22.2539 24.4456 24.383 22.3165 27 22.3165C29.617 22.3165 31.7461 24.4456 31.7461 27.0626C31.7461 29.6796 29.617 31.8086 27 31.8086ZM50.8359 30.2266H34.2477C34.6853 29.2292 34.9109 28.1517 34.9102 27.0626C34.9102 22.7009 31.3617 19.1524 27 19.1524C22.6383 19.1524 19.0898 22.7009 19.0898 27.0626C19.0891 28.1517 19.3147 29.2292 19.7523 30.2266H3.16406V15.9883H50.8359V30.2266Z" fill="white"/>
</svg>
