<svg width="48" height="48" viewBox="0 0 48 48" fill="none" xmlns="http://www.w3.org/2000/svg">
<g clip-path="url(#clip0_11_329)">
<path d="M25.456 5.68298H28.274V8.50099H25.456V5.68298Z" fill="#0066D0"/>
<path d="M19.8201 5.68298H22.6381V8.50099H19.8201V5.68298Z" fill="#0066D0"/>
<path d="M14.184 5.68298H17.002V8.50099H14.184V5.68298Z" fill="#0066D0"/>
<path d="M48 33.863V0.0469971H8.54795V14.137H2.91194V38.09H0L9.39335e-05 47.9531H47.9062L47.9063 38.09H45.182V33.863H48ZM11.366 2.865H45.1821V31.045H11.366C11.366 30.0569 11.366 3.86304 11.366 2.865ZM45.0881 45.1351H2.818V40.9081H45.0882L45.0881 45.1351ZM42.364 38.09H5.72994V16.955H8.54795V33.863H42.364V38.09Z" fill="#0066D0"/>
<path d="M20.2327 14.5498L15.0093 19.7731L20.2327 24.9964L22.2253 23.0038L18.9947 19.7731L22.2253 16.5424L20.2327 14.5498Z" fill="#0066D0"/>
<path d="M36.3154 24.9964L41.5387 19.7731L36.3154 14.5498L34.3228 16.5424L37.5534 19.7731L34.3228 23.0038L36.3154 24.9964Z" fill="#0066D0"/>
<path d="M25.4887 26.5308L28.3051 12.4347L31.0695 12.987L28.2532 27.0831L25.4887 26.5308Z" fill="#0066D0"/>
</g>
<defs>
<clipPath id="clip0_11_329">
<rect width="48" height="48" fill="white"/>
</clipPath>
</defs>
</svg>
