<svg width="48" height="48" viewBox="0 0 48 48" fill="none" xmlns="http://www.w3.org/2000/svg">
<path d="M41.4842 25.0914V14.3023H35.0456C34.1458 14.3023 33.2684 14.3991 32.4222 14.5813C32.0575 11.6646 30.5216 8.96247 28.1582 7.17063L24 4.01819L19.8418 7.17063C17.4784 8.96247 15.9424 11.6646 15.5777 14.5813C14.7316 14.3991 13.8541 14.3023 12.9543 14.3023H6.51581V25.0914H0V31.53C0 38.3959 5.58591 43.9818 12.4519 43.9818H35.5481C42.4141 43.9818 48 38.3959 48 31.53V25.0914H41.4842ZM38.6717 17.1148V25.0914H35.0456C31.1638 25.0914 27.6916 26.8772 25.4062 29.6701V26.7542C25.4062 21.439 29.7305 17.1148 35.0456 17.1148H38.6717ZM21.5409 9.41181L24 7.5475L26.459 9.41181C28.3763 10.8655 29.5617 13.1243 29.6833 15.5174C27.2471 16.6847 25.2474 18.6214 24 21.0107C22.7526 18.6213 20.7529 16.6846 18.3167 15.5174C18.4382 13.1244 19.6236 10.8655 21.5409 9.41181ZM9.32831 17.1148H12.9543C18.2694 17.1148 22.5937 21.439 22.5937 26.7542V29.6701C20.3083 26.8772 16.8361 25.0914 12.9543 25.0914H9.32831V17.1148ZM22.5938 41.1693H12.4519C7.13672 41.1693 2.8125 36.845 2.8125 31.53V27.9039H12.9544C18.2695 27.9039 22.5938 32.2281 22.5938 37.5433V41.1693ZM45.1875 31.53C45.1875 36.845 40.8633 41.1693 35.5481 41.1693H25.4062V37.5433C25.4062 32.2281 29.7305 27.9039 35.0456 27.9039H45.1875V31.53Z" fill="#0066D0"/>
</svg>
