<svg width="48" height="48" viewBox="0 0 48 48" fill="none" xmlns="http://www.w3.org/2000/svg">
<g clip-path="url(#clip0_11_152)">
<path d="M7.12706 28.997C6.84806 28.5898 6.50325 28.2421 6.10228 27.9636L4.42725 26.8688C3.45347 26.2327 2.20435 26.2465 1.24481 26.904C0.285377 27.5614 -0.178498 28.7213 0.0631894 29.8591L0.470252 31.7758L0.479533 31.8164C0.594377 32.2907 0.794158 32.7377 1.07335 33.1451C1.83797 34.2611 3.06122 34.8684 4.27997 34.8684C4.97738 34.8684 5.67319 34.6695 6.28069 34.2533C7.10813 33.6864 7.64494 32.8134 7.79222 31.7953C7.93294 30.8222 7.69669 29.8284 7.12706 28.997ZM4.88531 31.3748C4.86525 31.5136 4.803 31.7054 4.62038 31.8304C4.293 32.055 3.77813 31.8965 3.49603 31.485C3.42244 31.3774 3.36928 31.2617 3.33788 31.1407L2.97403 29.4278L4.44 30.3854C4.54153 30.4583 4.63022 30.5496 4.70391 30.6571C4.85588 30.8786 4.92019 31.1335 4.88531 31.3748Z" fill="#0066D0"/>
<path d="M14.0217 25.3503L13.2186 23.5175C12.7515 22.4523 11.6977 21.7844 10.5353 21.8059C9.37256 21.8313 8.34965 22.5485 7.92956 23.6331L7.22175 25.4602L7.20712 25.4995C7.0439 25.9594 6.96646 26.4428 6.97725 26.9364C6.99928 27.944 7.38684 28.889 8.06868 29.5975C8.76337 30.3194 9.67762 30.7139 10.651 30.7139C10.6773 30.7139 10.7037 30.7136 10.7301 30.713C11.7329 30.6911 12.6597 30.254 13.3401 29.4824C13.9902 28.7448 14.3362 27.7837 14.3142 26.7759C14.3033 26.2823 14.2049 25.8027 14.0217 25.3503ZM11.1367 27.54C11.044 27.6452 10.887 27.7716 10.6657 27.7765C10.4462 27.7807 10.2822 27.6619 10.1848 27.5608C10.0157 27.3852 9.9194 27.1406 9.9135 26.8723C9.91087 26.742 9.92962 26.616 9.96956 26.4975L10.6021 24.8647L11.3053 26.4682C11.3504 26.5848 11.3747 26.7098 11.3776 26.84C11.3835 27.1085 11.298 27.3571 11.1367 27.54Z" fill="#0066D0"/>
<path d="M20.682 22.9354C19.6104 22.4834 18.3836 22.7197 17.5569 23.5379L16.1641 24.9161L16.1349 24.9459C15.7979 25.299 15.5296 25.7087 15.3377 26.1635C14.946 27.0921 14.9134 28.1131 15.2461 29.0384C15.5942 30.0062 16.2947 30.7541 17.219 31.1441C17.6624 31.3312 18.1239 31.4197 18.5814 31.4197C20.0472 31.4197 21.469 30.5099 22.0992 29.0162C22.2911 28.5614 22.3974 28.0833 22.4151 27.5955L22.4312 25.5946C22.4403 24.4311 21.7537 23.3875 20.682 22.9354ZM19.4791 27.5052C19.4726 27.63 19.4438 27.7541 19.393 27.8741C19.1991 28.3338 18.7262 28.5918 18.3606 28.4376C18.1568 28.3517 18.0574 28.1762 18.0099 28.0442C17.9274 27.8148 17.9394 27.5522 18.0438 27.3049C18.0944 27.1849 18.163 27.0777 18.2478 26.986L19.4926 25.7543L19.4791 27.5052Z" fill="#0066D0"/>
<path d="M27.4969 29.9574C26.7518 29.0643 25.5533 28.7119 24.4435 29.06L22.5739 29.6461L22.5343 29.6591C22.0729 29.8182 21.6467 30.0592 21.2675 30.3756C20.4936 31.0212 19.9965 31.9136 19.868 32.8884C19.7333 33.9082 20.0132 34.8941 20.6557 35.6643C21.2982 36.4346 22.2179 36.8867 23.2454 36.9372C23.3087 36.9403 23.3717 36.9418 23.4348 36.9418C24.3511 36.9418 25.2443 36.6149 25.9685 36.0108C26.3476 35.6946 26.6611 35.3186 26.9005 34.8932L27.8324 33.1223C28.3735 32.0928 28.242 30.8506 27.4969 29.9574ZM24.3326 33.4671C24.2696 33.5751 24.187 33.6721 24.087 33.7555C23.8809 33.9274 23.6345 34.0156 23.3896 34.0036C23.2495 33.9967 23.0528 33.9527 22.9111 33.7829C22.7693 33.6129 22.7615 33.4115 22.7798 33.2724C22.8117 33.0307 22.9429 32.8029 23.1489 32.631C23.2491 32.5473 23.3592 32.4835 23.4767 32.441L25.1476 31.9172L24.3326 33.4671Z" fill="#0066D0"/>
<path d="M20.1442 36.014C19.8798 34.7667 19.3018 33.6067 18.4627 32.665C17.3282 31.3917 15.7882 30.5986 14.1266 30.4318C12.4648 30.2646 10.7982 30.7362 9.4334 31.7585C8.43337 32.5076 7.64156 33.5175 7.13409 34.6738C5.82356 34.7044 4.56515 35.1983 3.5325 36.0992C2.34647 37.1338 1.60509 38.5821 1.44506 40.1771C1.28494 41.7721 1.72359 43.3387 2.68031 44.5886C3.65859 45.8666 5.0535 46.6564 6.60787 46.8123L18.0219 47.9582C18.2088 47.9771 18.3944 47.9862 18.5785 47.9862C21.5312 47.9862 24.0851 45.6249 24.4007 42.4816C24.7032 39.4687 22.8472 36.751 20.1442 36.014ZM21.4784 42.1882C21.305 43.916 19.8856 45.1926 18.3154 45.0357L6.90122 43.8899C6.16294 43.8158 5.49206 43.4299 5.01244 42.8032C4.51115 42.1484 4.28212 41.3199 4.36734 40.4704C4.45265 39.6209 4.8419 38.8545 5.46328 38.3125C5.98837 37.8545 6.62194 37.6099 7.27134 37.6099C7.3575 37.6099 7.44394 37.6142 7.53047 37.6229L9.26681 37.7971L9.57759 36.5702C10.0991 34.5117 11.8888 33.1592 13.8333 33.3542C15.7777 33.5494 17.263 35.2307 17.3648 37.352L17.4255 38.6163L18.9442 38.7688H18.9442C20.5151 38.9264 21.6517 40.4605 21.4784 42.1882Z" fill="#0066D0"/>
<path d="M28.0011 11.3769C27.9398 10.3957 27.5053 9.47129 26.7774 8.77389C26.4209 8.43226 26.0123 8.16245 25.5628 7.97204L23.6993 7.24304C22.6163 6.81967 21.3963 7.08883 20.5914 7.92845C19.7868 8.76826 19.57 9.99864 20.0393 11.0629L20.8299 12.8556L20.8473 12.8934C21.0568 13.3343 21.3439 13.7311 21.7003 14.0725C22.428 14.7699 23.3702 15.1644 24.3532 15.1839C24.3788 15.1843 24.4042 15.1846 24.4297 15.1846C25.4287 15.1846 26.3476 14.7983 27.0243 14.0921C27.7182 13.3681 28.0651 12.4038 28.0011 11.3769ZM24.9037 12.0602C24.7506 12.22 24.5516 12.2504 24.411 12.2475C24.1673 12.2427 23.9263 12.1377 23.7324 11.952C23.6383 11.8618 23.5627 11.7595 23.5073 11.6475L22.8008 10.0452L24.4316 10.6826C24.5459 10.7332 24.6514 10.8044 24.7455 10.8946C24.9394 11.0803 25.0545 11.3167 25.0697 11.5599C25.0785 11.7 25.0569 11.9004 24.9037 12.0602Z" fill="#0066D0"/>
<path d="M33.3585 5.12957C33.247 4.64863 33.0526 4.19938 32.7807 3.79392L31.6196 2.16417C30.9445 1.2171 29.7764 0.77479 28.643 1.03757C27.5099 1.30035 26.6555 2.2116 26.4661 3.3591L26.1471 5.29232L26.1409 5.33357C26.0751 5.81723 26.0983 6.30632 26.2098 6.78726C26.6257 8.58163 28.1766 9.80723 29.8646 9.80723C30.1262 9.80723 30.3911 9.77779 30.6556 9.71648C32.6264 9.25926 33.839 7.20163 33.3585 5.12957ZM29.9921 6.85523C29.6051 6.94476 29.1835 6.60998 29.0708 6.12388C29.0413 5.99704 29.0339 5.86982 29.0488 5.7457L29.3341 4.01807L30.3505 5.44382C30.4186 5.54882 30.4679 5.6662 30.4973 5.79304C30.61 6.27923 30.3787 6.7657 29.9921 6.85523Z" fill="#0066D0"/>
<path d="M41.4556 4.27457L41.062 2.31257C40.833 1.17229 39.9474 0.291132 38.8059 0.0677254C37.6646 -0.155681 36.5121 0.326757 35.8701 1.29669L34.7888 2.93066L34.7664 2.96573C34.5087 3.3801 34.33 3.83601 34.2351 4.32069C34.0416 5.30976 34.2186 6.31579 34.7334 7.15344C35.2722 8.02973 36.1109 8.61848 37.0954 8.81104C37.3228 8.85557 37.5509 8.87751 37.7776 8.87751C38.5322 8.87751 39.2702 8.63385 39.908 8.16576C40.7006 7.58394 41.2436 6.71882 41.4371 5.72985C41.5319 5.24526 41.5382 4.7556 41.4556 4.27457ZM38.5547 5.16576C38.5032 5.42919 38.3666 5.65373 38.17 5.79801C38.057 5.88107 37.8765 5.97098 37.6595 5.92851C37.4423 5.88604 37.3092 5.73463 37.2356 5.6151C37.1078 5.40744 37.0658 5.14804 37.1175 4.88469C37.1425 4.75673 37.1878 4.63766 37.2521 4.5306L38.2187 3.07026L38.5635 4.7871C38.5826 4.91057 38.5797 5.03779 38.5547 5.16576Z" fill="#0066D0"/>
<path d="M46.9132 5.54721C46.0012 4.82534 44.756 4.72568 43.7407 5.29324L42.0306 6.24949L41.9947 6.27021C41.5754 6.52043 41.2075 6.84359 40.9012 7.23078C40.2757 8.02109 39.9716 8.99628 40.0452 9.97662C40.1222 11.0024 40.5977 11.9102 41.3843 12.5328C42.0168 13.0335 42.7826 13.2959 43.5869 13.2959C43.7827 13.2959 43.9807 13.2804 44.1796 13.249C45.1507 13.0954 46.03 12.5756 46.6553 11.7854C46.9619 11.3983 47.192 10.966 47.3392 10.5005L47.8891 8.57665C48.2081 7.45812 47.8252 6.26899 46.9132 5.54721ZM44.5337 9.62993C44.4941 9.74843 44.4333 9.86018 44.3523 9.96237C44.1857 10.1728 43.9612 10.3097 43.7205 10.3478C43.5818 10.3698 43.3804 10.3671 43.2068 10.2297C43.0333 10.0925 42.9845 9.89684 42.974 9.75696C42.9558 9.51387 43.0374 9.26403 43.2041 9.05346C43.285 8.95137 43.3796 8.86634 43.4858 8.80071L45.0144 7.94609L44.5337 9.62993Z" fill="#0066D0"/>
<path d="M46.4444 18.44C46.2749 16.8458 45.525 15.4019 44.3329 14.3744C43.3562 13.5324 42.182 13.0521 40.9547 12.9793C40.4407 11.8126 39.6377 10.7956 38.6239 10.0457C37.2529 9.0314 35.5832 8.57005 33.9228 8.74659C32.2623 8.92321 30.727 9.72543 29.6001 11.0054C28.7742 11.9432 28.2059 13.094 27.9456 14.3298C25.1251 14.9904 23.1736 17.7861 23.5027 20.8802C23.8356 24.01 26.3855 26.3506 29.3245 26.3504C29.5192 26.3504 29.7161 26.3401 29.9137 26.3191L41.3209 25.1058C42.8744 24.9405 44.2645 24.1426 45.2352 22.8588C46.1845 21.6033 46.614 20.034 46.4444 18.44ZM42.8926 21.087C42.4166 21.7165 41.7482 22.1063 41.0103 22.1848L29.6032 23.3981C28.0338 23.5651 26.6071 22.296 26.4234 20.5692C26.2398 18.8424 27.3674 17.3017 28.937 17.1348L30.6724 16.9504L30.7256 15.6857C30.815 13.5638 32.2903 11.8737 34.2336 11.6671C34.3657 11.653 34.497 11.6462 34.6274 11.6462C36.4153 11.6462 38.0108 12.9421 38.5083 14.858L38.8264 16.0832L40.3443 15.9216C41.0822 15.8435 41.8176 16.0836 42.4153 16.5991C43.04 17.1376 43.4337 17.9016 43.524 18.7506C43.6142 19.5994 43.3899 20.4292 42.8926 21.087Z" fill="#0066D0"/>
</g>
<defs>
<clipPath id="clip0_11_152">
<rect width="48" height="48" fill="white"/>
</clipPath>
</defs>
</svg>
