<svg width="48" height="48" viewBox="0 0 48 48" fill="none" xmlns="http://www.w3.org/2000/svg">
<mask id="mask0_11_342" style="mask-type:luminance" maskUnits="userSpaceOnUse" x="0" y="0" width="48" height="48">
<path d="M0 3.8147e-06H48V48H0V3.8147e-06Z" fill="white"/>
</mask>
<g mask="url(#mask0_11_342)">
<path d="M15.5625 12.6563C15.5625 6.44306 23.4118 1.40625 29.625 1.40625C30.1012 1.40625 43.6875 0.999565 43.6875 18.2813C43.6875 22.9412 39.9099 26.7188 35.25 26.7188C30.5901 26.7188 26.8125 22.9412 26.8125 18.2813" stroke="#0066D0" stroke-width="3" stroke-miterlimit="10"/>
<path d="M9.9375 28.0262C6.57487 26.081 4.3125 22.4454 4.3125 18.2813C4.3125 12.068 9.34931 7.03126 15.5625 7.03126C21.7757 7.03126 26.8125 12.068 26.8125 18.2813C26.8125 22.4454 24.5501 26.081 21.1875 28.0262V33.6094L18.375 35.7188L21.1875 37.8281L18.375 39.9375L21.1875 42.0469V43.5938C20.9056 43.7347 15.5625 46.4269 15.5625 46.4269C15.0969 46.1941 9.9375 43.5938 9.9375 43.5938V28.0262Z" stroke="#0066D0" stroke-width="3" stroke-miterlimit="10"/>
<path d="M18.375 15.4688C18.375 17.022 17.1158 18.2812 15.5625 18.2812C14.0092 18.2812 12.75 17.022 12.75 15.4688C12.75 13.9155 14.0092 12.6562 15.5625 12.6562C17.1158 12.6562 18.375 13.9155 18.375 15.4688Z" stroke="#0066D0" stroke-width="3" stroke-miterlimit="10"/>
<path d="M15.5625 30.9375V26.7188" stroke="#0066D0" stroke-width="3" stroke-miterlimit="10"/>
</g>
</svg>
