<svg width="48" height="48" viewBox="0 0 48 48" fill="none" xmlns="http://www.w3.org/2000/svg">
<g clip-path="url(#clip0_11_209)">
<path d="M46.5 28.2188V19.7812H40.2878C39.9603 18.6325 39.497 17.5247 38.903 16.4693L43.3049 12.0674L37.3385 6.10134L32.9368 10.503C31.8815 9.909 30.7738 9.44597 29.6249 9.1185V2.90625H22.6202C22.418 2.63034 22.195 2.36662 21.9517 2.11762C20.6169 0.752062 18.8473 0 16.9688 0C15.0902 0 13.3206 0.752062 11.9858 2.11762C10.5886 3.54694 9.89597 5.41594 9.93919 7.266C6.73275 7.9185 4.3125 10.7601 4.3125 14.1562C4.3125 15.4405 4.66987 16.6834 5.32762 17.7642C4.54641 18.1629 3.84009 18.7068 3.25087 19.3732C2.12184 20.65 1.5 22.2932 1.5 24C1.5 25.7067 2.12175 27.3498 3.25078 28.6267C3.84009 29.2931 4.54631 29.8371 5.32753 30.2358C4.66997 31.3165 4.3125 32.5596 4.3125 33.8438C4.3125 37.2399 6.73275 40.0815 9.93919 40.7341C9.89606 42.5825 10.5875 44.4519 11.9857 45.8824C13.3206 47.2479 15.0902 48 16.9688 48C18.8473 48 20.6169 47.2479 21.9518 45.8824C22.1952 45.6334 22.4181 45.3698 22.6203 45.0938H29.625V38.8815C30.7739 38.554 31.8816 38.091 32.9368 37.497L37.3386 41.8988L43.3049 35.9324L38.9032 31.5308C39.4972 30.4755 39.9603 29.3678 40.2878 28.2188H46.5V28.2188ZM16.9688 45.1875C14.3911 45.1875 12.1631 42.6384 12.9089 39.8063L13.3922 37.9718L11.4965 38.0427C8.98753 38.1368 7.125 36.1283 7.125 33.8438C7.125 32.7925 7.53272 31.7846 8.25694 31.0056C8.37806 31.0116 8.49891 31.0158 8.61891 31.0158C9.83325 31.0158 10.983 30.7057 12.0479 30.0897L10.6397 27.6552C9.80428 28.1384 8.95041 28.2972 7.95272 28.1544L7.94803 28.1538C5.87541 27.8645 4.3125 26.0787 4.3125 24C4.3125 21.9213 5.8755 20.1355 7.94812 19.8462L7.95281 19.8456C8.95059 19.703 9.80437 19.8616 10.6396 20.3448L12.0478 17.9103C10.8777 17.2333 9.60544 16.9275 8.25722 16.9947C7.53291 16.2157 7.125 15.2077 7.125 14.1562C7.125 11.8567 9.00037 9.86541 11.4975 9.95728L13.3919 10.0269L12.9089 8.19375C12.1643 5.36606 14.3869 2.8125 16.9688 2.8125C19.2556 2.8125 21.1875 4.78734 21.1875 7.125V40.875C21.1875 43.2127 19.2556 45.1875 16.9688 45.1875ZM24 20.023C24.4492 19.8647 24.9247 19.7812 25.4062 19.7812C27.7325 19.7812 29.625 21.6738 29.625 24C29.625 26.3262 27.7325 28.2188 25.4062 28.2188C24.9247 28.2188 24.4492 28.1353 24 27.977V20.023ZM39.3275 35.9323L37.3386 37.9211L33.3298 33.9125L32.3715 34.5476C30.9998 35.4568 29.5081 36.0801 27.9378 36.4002L26.8125 36.6297V42.2812H23.8609C23.9526 41.8224 24 41.352 24 40.875C24 38.7655 24 32.9793 24 30.889C24.461 30.9829 24.9321 31.0312 25.4062 31.0312C29.2833 31.0312 32.4375 27.877 32.4375 24C32.4375 20.123 29.2833 16.9688 25.4062 16.9688C24.9321 16.9688 24.461 17.0171 24 17.111C24 15.0195 24 9.23081 24 7.125C24 6.648 23.9526 6.17756 23.8609 5.71875H26.8125V11.3703L27.9379 11.5997C29.5082 11.9198 30.9999 12.5431 32.3716 13.4523L33.3299 14.0874L37.3387 10.0788L39.3275 12.0675L35.3186 16.0763L35.9538 17.0347C36.8632 18.4067 37.4866 19.8983 37.8067 21.4684L38.036 22.5938H43.6875V25.4062H38.036L37.8067 26.5315C37.4865 28.1019 36.8632 29.5937 35.954 30.9653L35.3188 31.9237L39.3275 35.9323Z" fill="#0066D0"/>
<path d="M16.6875 19.2188C17.7914 17.7468 18.375 15.9962 18.375 14.1562C18.375 12.3163 17.7914 10.5657 16.6875 9.09375L14.4375 10.7812C15.9278 12.7684 15.9278 15.5441 14.4375 17.5312L16.6875 19.2188Z" fill="#0066D0"/>
<path d="M14.4375 30.4688C15.9278 32.4559 15.9278 35.2316 14.4375 37.2188L16.6875 38.9062C17.7914 37.4343 18.375 35.6837 18.375 33.8438C18.375 32.0038 17.7914 30.2532 16.6875 28.7812L14.4375 30.4688Z" fill="#0066D0"/>
<path d="M10.7812 22.1719L9.09375 24.4219C10.5657 25.5259 12.3163 26.1094 14.1562 26.1094C15.9962 26.1094 17.7468 25.5259 19.2188 24.4219L17.5312 22.1719C15.5442 23.6621 12.7683 23.6621 10.7812 22.1719Z" fill="#0066D0"/>
</g>
<defs>
<clipPath id="clip0_11_209">
<rect width="48" height="48" fill="white"/>
</clipPath>
</defs>
</svg>
