<svg width="48" height="48" viewBox="0 0 48 48" fill="none" xmlns="http://www.w3.org/2000/svg">
<path d="M46.7106 17.6312C44.9913 15.9862 42.1955 15.9862 40.4762 17.6312L33.6042 24.2101C30.5232 23.366 27.0642 24.1041 24.6425 26.4224L20.0824 30.788V22.0052H21.7154C26.5851 22.0052 30.5468 18.2127 30.5468 13.5507V9.17385C26.5721 9.25206 23.2907 8.57195 20.0824 11.3355C20.0824 11.0895 20.0824 8.18772 20.0824 8.04845H20.0716C19.8502 3.57407 15.9787 0 11.2511 0H6.67916V4.37685C6.67916 9.0388 10.6408 12.8314 15.5105 12.8314H17.1435V31.783C13.4827 32.2876 10.3626 34.6528 9.02145 37.9652C4.19875 37.6435 -0.020789 41.2735 7.70617e-05 45.9369C7.70617e-05 45.9368 7.70617e-05 48 7.70617e-05 48H37.2258C37.2802 45.1865 37.278 43.1646 35.3254 40.8659L37.5276 38.7577C39.9492 36.4384 40.7202 33.1279 39.8385 30.1784L46.7106 23.5995C48.4298 21.9537 48.4298 19.2771 46.7106 17.6312ZM25.9748 11.9873H27.6079V13.5507C27.6079 16.6605 24.9639 19.1917 21.7154 19.1917H20.0824V17.6284C20.0824 14.5176 22.7254 11.9873 25.9748 11.9873ZM15.5105 10.0179C12.262 10.0179 9.61804 7.48763 9.61804 4.37685V2.81349H11.2511C14.5005 2.81349 17.1435 5.34469 17.1435 8.45453V10.0179H15.5105ZM34.9717 26.8801L35.8818 26.0079L37.9606 27.998L37.0495 28.8692C36.4664 28.9426 35.248 29.0949 34.6592 29.1684L34.9717 26.8801ZM44.6328 21.6104L40.0393 26.0079L37.9606 24.0178L42.554 19.6203C43.1271 19.0726 44.0597 19.0726 44.6328 19.6203C45.2059 20.169 45.2059 21.0618 44.6328 21.6104ZM2.99577 45.1865C3.37685 42.6966 5.62215 40.7787 8.32689 40.7787H11.2197L11.5077 39.7312C12.3571 36.6485 15.2793 34.4953 18.613 34.4953C21.9466 34.4953 24.8688 36.6485 25.7182 39.7312L26.0062 40.7787H28.899C31.5034 40.7301 33.9018 42.7242 34.2311 45.1865H2.99577ZM35.4488 36.7676L33.0771 39.0381C31.8212 38.3375 30.39 37.9652 28.899 37.9652H28.2045C27.1749 35.4218 25.0971 33.4374 22.5305 32.4245L26.7213 28.4125C28.1633 27.0311 30.148 26.4777 32.025 26.7525L31.2511 32.4311L37.1827 31.6902C37.4698 33.4871 36.8918 35.3871 35.4488 36.7676Z" fill="#0066D0"/>
</svg>
