<svg width="48" height="48" viewBox="0 0 48 48" fill="none" xmlns="http://www.w3.org/2000/svg">
<mask id="mask0_11_131" style="mask-type:luminance" maskUnits="userSpaceOnUse" x="0" y="0" width="48" height="48">
<path d="M0 3.8147e-06H48V48H0V3.8147e-06Z" fill="white"/>
</mask>
<g mask="url(#mask0_11_131)">
<path d="M27.3936 15.0937C27.3936 13.2195 25.8742 11.7002 24 11.7002C22.1258 11.7002 20.6065 13.2195 20.6065 15.0937C20.6065 16.968 22.1258 18.4873 24 18.4873C25.8742 18.4873 27.3936 16.968 27.3936 15.0937Z" stroke="#0066D0" stroke-width="3" stroke-miterlimit="10"/>
<path d="M34.2939 15.0938C34.2939 14.6073 34.2594 14.129 34.1941 13.6605L37.494 11.091L34.2135 5.409L30.338 6.98213C29.5873 6.39469 28.7527 5.90972 27.8555 5.547L27.2805 1.40625H20.7196L20.1444 5.547C19.2472 5.90972 18.4128 6.39469 17.662 6.98213L13.7865 5.409L10.5061 11.091L13.8059 13.6605C13.7406 14.129 13.706 14.6073 13.706 15.0938C13.706 15.5802 13.7406 16.0585 13.8059 16.527L10.5061 19.0965L13.7865 24.7785L17.662 23.2054C18.4128 23.7928 19.2472 24.2778 20.1444 24.6405L20.7196 28.7812H27.2805L27.8555 24.6405C28.7527 24.2778 29.5873 23.7928 30.338 23.2054L34.2135 24.7785L37.494 19.0965L34.1941 16.527C34.2594 16.0585 34.2939 15.5802 34.2939 15.0938Z" stroke="#0066D0" stroke-width="3" stroke-miterlimit="10"/>
<path d="M38.1094 46.5938V40.057C38.1094 33.8296 33.061 28.7812 26.8336 28.7812H21.1664C14.939 28.7812 9.89062 33.8296 9.89062 40.057V46.5938H38.1094Z" stroke="#0066D0" stroke-width="3" stroke-miterlimit="10"/>
<path d="M28.2188 29.25L26.1094 34.4062H21.8906L19.7812 29.25" stroke="#0066D0" stroke-width="3" stroke-miterlimit="10"/>
<path d="M21.8906 34.4063L20.0625 46.4062" stroke="#0066D0" stroke-width="3" stroke-miterlimit="10"/>
<path d="M26.1094 34.4063L27.9375 46.4062" stroke="#0066D0" stroke-width="3" stroke-miterlimit="10"/>
<path d="M31.0312 39.4294H33.8438" stroke="#0066D0" stroke-width="3" stroke-miterlimit="10"/>
</g>
</svg>
