<svg width="48" height="48" viewBox="0 0 48 48" fill="none" xmlns="http://www.w3.org/2000/svg">
<g clip-path="url(#clip0_11_269)">
<path d="M23.9977 5.72046C13.9184 5.72046 5.71819 13.9206 5.71819 23.9999C5.71819 34.0792 13.9184 42.2794 23.9977 42.2794C34.0769 42.2794 42.2771 34.0792 42.2771 23.9999C42.2771 13.9206 34.0769 5.72046 23.9977 5.72046ZM23.9977 8.53268C31.5661 8.53268 37.8816 13.9971 39.2079 21.1877C38.3251 21.0517 33.1009 22.0204 29.1254 17.7839C26.876 15.3865 23.9124 15.5451 23.997 15.5632C22.0344 15.5632 20.2135 16.352 18.87 17.7838C16.8402 19.9469 13.9026 21.1876 10.8108 21.1876H8.78735C10.1137 13.9971 16.4292 8.53268 23.9977 8.53268ZM9.6553 29.7886C15.1055 28.6414 20.3298 33.2099 19.7458 38.8728C15.1536 37.558 11.4295 34.1686 9.6553 29.7886ZM22.5164 39.3959C23.4706 31.6635 16.3469 25.371 8.84088 27.0908C8.63756 26.0917 8.53041 25.0582 8.53041 23.9999C9.46191 23.8517 15.9745 24.979 20.9209 19.7082C22.5833 17.9363 25.3992 17.9225 27.0746 19.7083C32.0257 24.9842 38.5111 23.8482 39.465 23.9999C39.465 25.0582 39.3578 26.0917 39.1545 27.0908C31.6332 25.3678 24.5268 31.6798 25.479 39.3959C24.5213 39.4873 23.5492 39.4944 22.5164 39.3959ZM28.2495 38.8728C27.6649 33.2036 32.8963 28.6426 38.3401 29.7885C36.5659 34.1686 32.8417 37.558 28.2495 38.8728Z" fill="#0066D0"/>
<path d="M28.216 25.4061C28.216 23.0801 26.3238 21.1877 23.9977 21.1877C21.6716 21.1877 19.7793 23.0801 19.7793 25.4061C19.7793 27.7321 21.6716 29.6244 23.9977 29.6244C26.3238 29.6244 28.216 27.7322 28.216 25.4061ZM23.9977 26.8122C23.2223 26.8122 22.5916 26.1815 22.5916 25.4061C22.5916 24.6308 23.2223 24 23.9977 24C24.7731 24 25.4038 24.6308 25.4038 25.4061C25.4038 26.1815 24.7731 26.8122 23.9977 26.8122Z" fill="#0066D0"/>
<path d="M40.9471 7.05051C36.4021 2.50539 30.3826 0.00231934 23.9977 0.00231934C10.7839 0.00231934 0 10.7871 0 24C0 37.2138 10.7848 47.9976 23.9977 47.9976C30.3826 47.9976 36.4021 45.4946 40.9471 40.9494C50.3493 31.5472 50.3525 16.456 40.9471 7.05051ZM23.9977 45.1854C12.316 45.1854 2.81223 35.6817 2.81223 24C2.81223 12.3183 12.316 2.81454 23.9977 2.81454C35.6794 2.81454 45.1831 12.3183 45.1831 24C45.1831 35.6817 35.6794 45.1854 23.9977 45.1854Z" fill="#0066D0"/>
</g>
<defs>
<clipPath id="clip0_11_269">
<rect width="48" height="48" fill="white"/>
</clipPath>
</defs>
</svg>
