<svg width="48" height="48" viewBox="0 0 48 48" fill="none" xmlns="http://www.w3.org/2000/svg">
<g clip-path="url(#clip0_11_198)">
<path d="M10.9834 12.8693C11.769 12.8693 12.4082 13.5084 12.4082 14.2941V15.5291H15.2165V14.294C15.2165 11.9599 13.3176 10.0609 10.9834 10.0609C8.6492 10.0609 6.75029 11.9598 6.75029 14.294V15.529H9.55857V14.294C9.55867 13.5084 10.1978 12.8693 10.9834 12.8693Z" fill="#0066D0"/>
<path d="M23.0184 22.0124V19.72H20.2102V22.0124C20.2102 24.1337 18.4843 25.8596 16.363 25.8596C14.2418 25.8596 12.5159 24.1337 12.5159 22.0124V19.72H9.70763V22.0124C9.70763 25.6823 12.6933 28.6679 16.3631 28.6679C20.033 28.6679 23.0184 25.6823 23.0184 22.0124Z" fill="#0066D0"/>
<path d="M20.3349 14.294C20.3349 13.5084 20.9741 12.8692 21.7598 12.8692C22.5454 12.8692 23.1846 13.5083 23.1846 14.294V15.529H25.9928V14.294C25.9928 11.9599 24.0938 10.0609 21.7598 10.0609C19.4257 10.0609 17.5267 11.9598 17.5267 14.294V15.529H20.3349V14.294Z" fill="#0066D0"/>
<path d="M44.5038 12.0836C40.4256 14.1616 35.8928 15.2218 31.3236 15.1764V0L29.282 1.04025C25.3077 3.06525 20.8494 4.13559 16.3891 4.13559C11.9288 4.13559 7.47047 3.06525 3.49632 1.04025L1.45463 0V17.8324C1.43925 21.8046 2.5201 25.6507 4.58035 28.9549C6.684 32.3287 9.64604 34.8657 13.1469 36.2926C14.1776 36.7352 15.2833 36.9565 16.3891 36.9565C16.9863 36.9565 17.5829 36.8898 18.1683 36.7607C20.1111 41.6482 23.7682 45.4609 28.3687 47.336C29.3994 47.7787 30.5051 48 31.611 48C32.7168 48 33.8225 47.7787 34.8533 47.336C38.3542 45.9091 41.3161 43.372 43.4197 39.9983C45.4799 36.694 46.5608 32.8479 46.5454 28.8812V11.0434L44.5038 12.0836ZM14.2458 33.7082L14.2181 33.6966C8.23632 31.2644 4.23563 24.8934 4.263 17.8378V4.49044C8.08885 6.10031 12.2383 6.94388 16.3891 6.94388C20.54 6.94388 24.6893 6.10022 28.5152 4.49044V17.8433C28.5427 24.8934 24.5419 31.2644 18.56 33.6966L18.5323 33.7082C17.1703 34.2962 15.608 34.2962 14.2458 33.7082ZM43.737 28.8866C43.7644 35.9368 39.7637 42.3078 33.7819 44.7399L33.7541 44.7516C32.3919 45.3397 30.8295 45.3396 29.4675 44.7516L29.4398 44.7399C25.5593 43.1621 22.4617 39.9282 20.7948 35.7668C23.7892 34.2818 26.3315 31.948 28.1978 28.9549C30.2324 25.6917 31.3111 21.9 31.3227 17.9857C35.5835 18.024 39.8153 17.1873 43.7369 15.5346V28.8866H43.737Z" fill="#0066D0"/>
<path d="M36.9815 30.7848C39.3156 30.7848 41.2146 28.8859 41.2146 26.5517V25.3168H38.4063V26.5517C38.4063 27.3374 37.7671 27.9766 36.9815 27.9766C36.1958 27.9766 35.5568 27.3375 35.5568 26.5517V25.3168H32.7485V26.5517C32.7485 28.8859 34.6474 30.7848 36.9815 30.7848Z" fill="#0066D0"/>
<path d="M32.9851 33.0521H30.1843C27.8028 33.0521 25.8654 34.9896 25.8654 37.3711H28.6736C28.6736 36.5381 29.3513 35.8604 30.1843 35.8604H32.9851C33.8181 35.8604 34.4958 36.5381 34.4958 37.3711H37.3041C37.3041 34.9896 35.3666 33.0521 32.9851 33.0521Z" fill="#0066D0"/>
</g>
<defs>
<clipPath id="clip0_11_198">
<rect width="48" height="48" fill="white"/>
</clipPath>
</defs>
</svg>
