<svg width="48" height="48" viewBox="0 0 48 48" fill="none" xmlns="http://www.w3.org/2000/svg">
<g clip-path="url(#clip0_11_338)">
<path d="M35.6998 37.7043L37.696 35.7081L41.4602 39.4723L39.4639 41.4685L35.6998 37.7043Z" fill="#0066D0"/>
<path d="M42.9377 21.1765L48 16.1142V10.6486C48 9.04856 46.6949 7.74692 45.0906 7.74692C44.3252 7.74692 43.601 8.04951 43.0517 8.59896L40.3564 11.2941H38.7024L36.7059 9.2976V7.64358L39.4011 4.94833C40.2331 4.11633 40.4798 2.87633 40.0296 1.78936C39.5792 0.7024 38.528 0 37.3514 0H31.8858L26.8235 5.06231V13.5329L23.2941 17.0623L15.3746 9.14278L14.3714 5.63172L4.29289 0.137318L0.137318 4.29289L5.63181 14.3714L9.14287 15.3746L17.0623 23.2941L13.5329 26.8235H5.06231L0 31.8858V37.3514C0 38.9514 1.30513 40.2531 2.90936 40.2531C3.67482 40.2531 4.39896 39.9505 4.94833 39.401L7.64358 36.7059H9.2976L11.2941 38.7024V40.3564L8.59887 43.0517C7.76687 43.8837 7.52019 45.1237 7.97045 46.2107C8.4208 47.2976 9.472 48 10.6486 48H16.1142L21.1765 42.9377V34.4671L24.7059 30.9377L29.6471 35.8789V40.1142L35.3651 45.8322C38.2507 48.7178 42.9463 48.7181 45.8322 45.8322C48.718 42.9464 48.718 38.2508 45.8322 35.3651L40.1142 29.6471H35.8789L30.9377 24.7059L34.4671 21.1765H42.9377ZM3.62739 4.79586L4.79586 3.62739L11.9816 7.54466L12.532 9.47153L9.47162 12.532L7.54475 11.9816L3.62739 4.79586ZM11.8789 14.1176L14.1176 11.8789L21.2976 19.0588L19.0588 21.2976L11.8789 14.1176ZM43.8357 37.3616C45.6206 39.1465 45.6206 42.0507 43.8357 43.8357C42.0507 45.6206 39.1465 45.6206 37.3616 43.8357L32.4706 38.9447V35.8789L35.8789 32.4706H38.9447L43.8357 37.3616ZM33.2976 31.0588L31.0588 33.2976L26.7024 28.9412L28.9412 26.7024L33.2976 31.0588ZM18.3529 33.2976V41.7682L14.9447 45.1765H10.6486C10.6172 45.1765 10.5984 45.1765 10.5792 45.1302C10.56 45.0838 10.5733 45.0703 10.5955 45.0482L14.1176 41.5259V37.5329L10.4671 33.8824H6.47407C2.79322 37.5537 2.94635 37.4296 2.90936 37.4296C2.88922 37.4296 2.82353 37.424 2.82353 37.3514V33.0553L6.23181 29.6471H14.7024L29.6471 14.7024V6.23181L33.0553 2.82353H37.3515C37.3829 2.82353 37.4017 2.82353 37.4209 2.86984C37.4401 2.91624 37.4268 2.92969 37.4046 2.95181L33.8824 6.47407V10.4671L37.5329 14.1176H41.5259C45.2068 10.4463 45.0536 10.5704 45.0906 10.5704C45.1108 10.5704 45.1765 10.5761 45.1765 10.6486V14.9447L41.7682 18.3529H33.2976L18.3529 33.2976Z" fill="#0066D0"/>
</g>
<defs>
<clipPath id="clip0_11_338">
<rect width="48" height="48" fill="white"/>
</clipPath>
</defs>
</svg>
