<svg width="48" height="48" viewBox="0 0 48 48" fill="none" xmlns="http://www.w3.org/2000/svg">
<g clip-path="url(#clip0_11_215)">
<path d="M14.4868 9.30005C6.49875 9.30005 0 15.7988 0 23.7869V48H28.9737V23.7869C28.9737 15.7988 22.4749 9.30005 14.4868 9.30005ZM2.8125 45.1875V23.7869C2.8125 17.3497 8.04956 12.1125 14.4868 12.1125C20.9241 12.1125 26.1611 17.3496 26.1611 23.7869V45.1875H2.8125Z" fill="#0066D0"/>
<path d="M16.7828 24.6862C14.56 24.6862 12.7517 22.8778 12.7517 20.655V20.0887H9.93919V20.655C9.93919 22.8777 8.13085 24.6862 5.90813 24.6862H4.14507V32.5847C4.14507 38.2872 8.78438 42.9265 14.4869 42.9265C20.1894 42.9265 24.8288 38.2872 24.8288 32.5847V24.6862H16.7828ZM22.0163 32.5847C22.0163 36.7364 18.6386 40.114 14.4869 40.114C10.3353 40.114 6.95756 36.7364 6.95756 32.5847V27.4183C8.73872 27.1431 10.2954 26.1783 11.3454 24.8064C12.5972 26.4419 14.569 27.4987 16.7828 27.4987H22.0163V32.5847Z" fill="#0066D0"/>
<path d="M28.125 0V16.4698H31.424L34.0741 19.1198L36.7241 16.4698H48V0H28.125ZM45.1875 13.6573H35.5592L34.0741 15.1424L32.5889 13.6573H30.9375V2.8125H45.1875V13.6573Z" fill="#0066D0"/>
<path d="M42.375 6.82861H33.75V9.64111H42.375V6.82861Z" fill="#0066D0"/>
</g>
<defs>
<clipPath id="clip0_11_215">
<rect width="48" height="48" fill="white"/>
</clipPath>
</defs>
</svg>
