<svg width="33" height="33" viewBox="0 0 33 33" fill="none" xmlns="http://www.w3.org/2000/svg">
<path d="M20.1339 26.003C19.9573 26.004 19.7822 25.9702 19.6186 25.9034C19.4551 25.8366 19.3063 25.7381 19.1809 25.6137L11.1273 17.5602C10.8774 17.3087 10.737 16.9685 10.737 16.6139C10.737 16.2593 10.8774 15.9191 11.1273 15.6676L19.1809 7.61402C19.4377 7.39412 19.768 7.27921 20.1058 7.29226C20.4436 7.30531 20.7641 7.44535 21.0031 7.6844C21.2422 7.92345 21.3822 8.2439 21.3953 8.58171C21.4083 8.91953 21.2934 9.24983 21.0735 9.50661L13.9729 16.6072L21.0735 23.7077C21.262 23.8947 21.3908 24.1333 21.4437 24.3935C21.4965 24.6536 21.4711 24.9236 21.3705 25.1693C21.2699 25.4149 21.0988 25.6253 20.8787 25.7737C20.6586 25.9221 20.3994 26.0019 20.1339 26.003Z" fill="white"/>
</svg>
