<svg width="33" height="33" viewBox="0 0 33 33" fill="none" xmlns="http://www.w3.org/2000/svg">
<path d="M12.0803 7.21135C12.2569 7.21033 12.432 7.24419 12.5956 7.31098C12.7591 7.37778 12.9079 7.47621 13.0333 7.60061L21.0869 15.6542C21.3369 15.9057 21.4772 16.2459 21.4772 16.6005C21.4772 16.9551 21.3369 17.2953 21.0869 17.5468L13.0333 25.6003C12.7765 25.8202 12.4462 25.9351 12.1084 25.9221C11.7706 25.909 11.4501 25.769 11.2111 25.53C10.972 25.2909 10.832 24.9705 10.8189 24.6326C10.8059 24.2948 10.9208 23.9645 11.1407 23.7078L18.2413 16.6072L11.1407 9.50662C10.9522 9.31968 10.8234 9.08105 10.7705 8.8209C10.7177 8.56075 10.7431 8.29077 10.8437 8.04509C10.9443 7.79942 11.1154 7.58908 11.3355 7.44067C11.5556 7.29227 11.8148 7.21246 12.0803 7.21135Z" fill="white"/>
</svg>
