<svg width="183" height="54" viewBox="0 0 183 54" fill="none" xmlns="http://www.w3.org/2000/svg">
<path fill-rule="evenodd" clip-rule="evenodd" d="M92.4474 29.4604C91.3112 29.4656 90.202 29.7998 89.2598 30.4209C88.3176 31.042 87.5847 31.922 87.1536 32.95C86.7225 33.9779 86.6125 35.1077 86.8374 36.1968C87.0623 37.2859 87.6122 38.2854 88.4175 39.0691C89.2229 39.8529 90.2476 40.3859 91.3625 40.6007C92.4773 40.8155 93.6322 40.7026 94.6815 40.2763C95.7307 39.8499 96.6273 39.1291 97.258 38.205C97.8888 37.2808 98.2254 36.1947 98.2254 35.0836C98.2364 34.34 98.0943 33.6017 97.8075 32.9128C97.5207 32.224 97.0951 31.5986 96.5559 31.0739C96.0168 30.5492 95.3753 30.136 94.6694 29.8588C93.9636 29.5816 93.2079 29.4461 92.4474 29.4604ZM92.4474 38.4973C91.7486 38.5451 91.0513 38.3862 90.4461 38.0413C89.8408 37.6964 89.3557 37.1815 89.0537 36.5635C88.7518 35.9454 88.6469 35.2528 88.7529 34.5758C88.8588 33.8987 89.1706 33.2684 89.6477 32.7669C90.1248 32.2654 90.7452 31.9158 91.4282 31.7636C92.1112 31.6114 92.8252 31.6637 93.4774 31.9135C94.1297 32.1634 94.6899 32.5994 95.0854 33.1647C95.4809 33.7301 95.6933 34.3987 95.695 35.0836C95.7168 35.5176 95.6495 35.9515 95.4971 36.3597C95.3446 36.7678 95.1102 37.142 94.8075 37.4602C94.5048 37.7783 94.1401 38.034 93.7347 38.2121C93.3294 38.3902 92.8917 38.4872 92.4474 38.4973ZM79.8496 29.4604C78.7127 29.463 77.6022 29.795 76.6582 30.4145C75.7143 31.034 74.9793 31.9131 74.5461 32.9409C74.1129 33.9686 74.0009 35.0988 74.2243 36.1888C74.4478 37.2787 74.9966 38.2794 75.8014 39.0645C76.6062 39.8496 77.6309 40.3839 78.7461 40.5998C79.8613 40.8157 81.0169 40.7036 82.067 40.2776C83.117 39.8516 84.0144 39.1308 84.6457 38.2064C85.277 37.2819 85.614 36.1952 85.614 35.0836C85.625 34.34 85.4829 33.6017 85.1961 32.9128C84.9093 32.224 84.4837 31.5986 83.9445 31.0739C83.4054 30.5492 82.7639 30.136 82.058 29.8588C81.3522 29.5816 80.5965 29.4461 79.836 29.4604H79.8496ZM79.8496 38.4973C79.1504 38.5478 78.4519 38.3913 77.845 38.0481C77.2381 37.705 76.7509 37.1912 76.4469 36.5736C76.1428 35.956 76.0359 35.2631 76.1402 34.5853C76.2444 33.9074 76.555 33.2759 77.0314 32.7731C77.5078 32.2702 78.128 31.9192 78.8112 31.7658C79.4945 31.6124 80.2092 31.6637 80.8622 31.913C81.5152 32.1623 82.0764 32.5981 82.4726 33.1636C82.8688 33.7291 83.0817 34.3982 83.0836 35.0836C83.1054 35.5176 83.0381 35.9515 82.8857 36.3597C82.7333 36.7678 82.4988 37.142 82.1961 37.4602C81.8934 37.7783 81.5287 38.034 81.1233 38.2121C80.718 38.3902 80.2803 38.4872 79.836 38.4973H79.8496ZM64.8431 31.1937V33.5753H70.6887C70.5971 34.697 70.1202 35.7555 69.3356 36.5788C68.7507 37.1612 68.0477 37.6176 67.2716 37.9184C66.4956 38.2192 65.6637 38.3578 64.8295 38.3253C63.9766 38.3253 63.132 38.161 62.344 37.8418C61.5559 37.5227 60.8399 37.0549 60.2368 36.4651C59.6337 35.8754 59.1552 35.1752 58.8288 34.4047C58.5024 33.6342 58.3344 32.8083 58.3344 31.9743C58.3344 31.1403 58.5024 30.3144 58.8288 29.5439C59.1552 28.7734 59.6337 28.0732 60.2368 27.4835C60.8399 26.8937 61.5559 26.4259 62.344 26.1068C63.132 25.7876 63.9766 25.6233 64.8295 25.6233C66.4774 25.5971 68.0687 26.2109 69.2544 27.3302L70.9729 25.6498C70.1725 24.8573 69.2175 24.2299 68.1646 23.8049C67.1116 23.3799 65.9822 23.1659 64.8431 23.1756C63.6401 23.1298 62.4401 23.3219 61.3149 23.7405C60.1897 24.1591 59.1625 24.7954 58.2948 25.6114C57.4272 26.4275 56.7369 27.4064 56.2654 28.4895C55.7939 29.5726 55.5509 30.7376 55.5509 31.9148C55.5509 33.0919 55.7939 34.2569 56.2654 35.3401C56.7369 36.4232 57.4272 37.4021 58.2948 38.2181C59.1625 39.0341 60.1897 39.6705 61.3149 40.089C62.4401 40.5076 63.6401 40.6997 64.8431 40.654C66.0013 40.7051 67.1573 40.5132 68.2333 40.0909C69.3093 39.6687 70.2804 39.0261 71.0811 38.2062C72.4988 36.6832 73.2557 34.6811 73.192 32.6226C73.1964 32.1212 73.1511 31.6204 73.0567 31.1275L64.8431 31.1937ZM126.154 33.046C125.802 32.0308 125.142 31.1444 124.262 30.5041C123.383 29.8638 122.325 29.4998 121.229 29.4604C120.489 29.459 119.756 29.606 119.076 29.8924C118.397 30.1788 117.784 30.5985 117.277 31.1256C116.77 31.6526 116.378 32.2758 116.127 32.9566C115.876 33.6374 115.77 34.3613 115.816 35.0836C115.8 35.8231 115.936 36.5583 116.217 37.2452C116.497 37.9321 116.917 38.5567 117.45 39.0815C117.983 39.6064 118.618 40.0209 119.319 40.3001C120.019 40.5794 120.77 40.7177 121.527 40.7069C122.473 40.7119 123.406 40.4873 124.242 40.0532C125.078 39.619 125.791 38.989 126.317 38.2194L124.355 36.8963C124.062 37.3737 123.647 37.7685 123.152 38.0422C122.656 38.3159 122.096 38.459 121.527 38.4576C120.941 38.4794 120.361 38.3283 119.864 38.0239C119.367 37.7195 118.975 37.2759 118.739 36.7508L126.439 33.6414L126.154 33.046ZM118.306 34.9249C118.279 34.5156 118.335 34.1051 118.472 33.7174C118.609 33.3297 118.823 32.9727 119.103 32.6671C119.383 32.3615 119.722 32.1136 120.101 31.9378C120.48 31.7621 120.891 31.662 121.31 31.6435C121.747 31.6154 122.182 31.7133 122.562 31.925C122.942 32.1367 123.25 32.4529 123.448 32.8343L118.306 34.9249ZM112.055 40.3761H114.585V23.8371H112.055V40.3761ZM107.914 30.7173H107.819C107.438 30.3004 106.971 29.967 106.448 29.739C105.926 29.511 105.36 29.3935 104.788 29.3942C103.309 29.4643 101.915 30.0881 100.894 31.1362C99.8726 32.1843 99.303 33.5765 99.303 35.0241C99.303 36.4717 99.8726 37.8638 100.894 38.912C101.915 39.9601 103.309 40.5838 104.788 40.654C105.362 40.6634 105.93 40.5498 106.454 40.3212C106.978 40.0926 107.444 39.7546 107.819 39.3308H107.9V40.1379C107.9 42.2946 106.723 43.4457 104.829 43.4457C104.198 43.4313 103.586 43.2336 103.07 42.8778C102.554 42.522 102.158 42.0242 101.933 41.4478L99.7274 42.3476C100.143 43.3351 100.85 44.1788 101.759 44.7705C102.668 45.3622 103.737 45.675 104.829 45.6686C107.792 45.6686 110.241 43.9618 110.241 39.8072V29.7912H107.914V30.7173ZM105.018 38.4973C104.145 38.4221 103.333 38.0299 102.741 37.398C102.149 36.7661 101.821 35.9404 101.821 35.0836C101.821 34.2268 102.149 33.4011 102.741 32.7693C103.333 32.1374 104.145 31.7452 105.018 31.67C105.451 31.6917 105.875 31.7979 106.265 31.9823C106.655 32.1667 107.004 32.4256 107.29 32.7437C107.576 33.0618 107.794 33.4327 107.932 33.8346C108.069 34.2365 108.123 34.6611 108.09 35.0836C108.127 35.5079 108.075 35.9352 107.939 36.3395C107.802 36.7438 107.583 37.1168 107.294 37.4359C107.006 37.755 106.654 38.0135 106.261 38.196C105.867 38.3784 105.44 38.4809 105.005 38.4973H105.018ZM138.008 23.8371H131.946V40.3761H134.476V34.1045H138.008C138.729 34.1552 139.453 34.06 140.135 33.825C140.817 33.5899 141.442 33.2201 141.972 32.7384C142.501 32.2567 142.923 31.6736 143.211 31.0254C143.5 30.3772 143.649 29.6778 143.649 28.9708C143.649 28.2638 143.5 27.5644 143.211 26.9162C142.923 26.268 142.501 25.6849 141.972 25.2033C141.442 24.7216 140.817 24.3517 140.135 24.1167C139.453 23.8816 138.729 23.7865 138.008 23.8371ZM138.008 31.7758H134.476V26.1393H138.062C138.832 26.1393 139.57 26.4384 140.115 26.9706C140.659 27.5028 140.965 28.2247 140.965 28.9774C140.965 29.7301 140.659 30.452 140.115 30.9843C139.57 31.5165 138.832 31.8155 138.062 31.8155L138.008 31.7758ZM153.61 29.3942C152.689 29.3404 151.772 29.5509 150.971 29.9998C150.171 30.4488 149.522 31.1167 149.104 31.9214L151.35 32.8343C151.572 32.4352 151.907 32.1077 152.315 31.8915C152.724 31.6754 153.188 31.5801 153.651 31.6171C153.972 31.5804 154.297 31.6066 154.608 31.6942C154.919 31.7819 155.209 31.9291 155.46 32.1274C155.712 32.3257 155.921 32.5711 156.075 32.8492C156.229 33.1273 156.325 33.4326 156.357 33.7473V33.9193C155.544 33.4984 154.638 33.2802 153.718 33.2842C151.296 33.2842 148.847 34.6073 148.847 37.0022C148.871 37.5127 148.999 38.0134 149.225 38.4746C149.45 38.9358 149.768 39.3482 150.159 39.6874C150.55 40.0266 151.006 40.2857 151.501 40.4494C151.997 40.6132 152.52 40.6782 153.042 40.6407C154.341 40.7334 155.586 40.1247 156.289 39.053H156.37V40.3761H158.806V34.0119C158.806 31.1143 156.56 29.4339 153.678 29.4339L153.61 29.3942ZM153.299 38.4576C152.473 38.4576 151.323 38.0474 151.323 37.0551C151.323 35.732 152.757 35.2953 154.029 35.2953C154.833 35.2758 155.628 35.4677 156.33 35.851C156.245 36.5674 155.899 37.2297 155.354 37.716C154.81 38.2022 154.104 38.4797 153.366 38.4973L153.299 38.4576ZM167.683 29.7912L164.787 36.9625H164.706L161.702 29.7912H158.996L163.502 39.8204L160.931 45.3907H163.569L170.497 29.7912H167.683ZM144.936 40.3761H147.467V23.8371H144.936V40.3761Z" fill="white"/>
<path fill-rule="evenodd" clip-rule="evenodd" d="M14.3705 10.659C13.9392 11.1804 13.7263 11.8425 13.7751 12.5114V41.7788C13.7339 42.4512 13.9565 43.1137 14.3976 43.6311L14.4923 43.7238L31.2308 27.3436V26.9599L14.4652 10.5664L14.3705 10.659Z" fill="url(#paint0_linear_10_201)"/>
<path fill-rule="evenodd" clip-rule="evenodd" d="M36.7787 32.8078L31.2308 27.3433V26.9596L36.7787 21.4819L36.9005 21.5481L43.5445 25.2396C45.4389 26.2849 45.4389 28.0049 43.5445 29.0634L36.9276 32.7417L36.7787 32.8078Z" fill="url(#paint1_linear_10_201)"/>
<path fill-rule="evenodd" clip-rule="evenodd" d="M36.9411 32.7286L31.2308 27.145L14.3705 43.6311C14.7566 43.963 15.2492 44.1526 15.7631 44.1671C16.277 44.1816 16.78 44.0201 17.185 43.7105L36.9546 32.7286" fill="url(#paint2_linear_10_201)"/>
<path fill-rule="evenodd" clip-rule="evenodd" d="M36.9411 21.5615L17.1715 10.5796C16.7664 10.27 16.2635 10.1085 15.7496 10.123C15.2357 10.1375 14.7431 10.327 14.3569 10.659L31.2308 27.145L36.9411 21.5615Z" fill="url(#paint3_linear_10_201)"/>
<path opacity="0.2" fill-rule="evenodd" clip-rule="evenodd" d="M36.7787 32.6094L17.1715 43.5251C16.7808 43.8107 16.3061 43.965 15.8184 43.965C15.3306 43.965 14.8559 43.8107 14.4652 43.5251L14.3705 43.6177L14.4652 43.7103C14.855 43.998 15.33 44.1536 15.8184 44.1536C16.3067 44.1536 16.7817 43.998 17.1715 43.7103L36.9411 32.7285L36.7787 32.6094Z" fill="#001933"/>
<path opacity="0.12" fill-rule="evenodd" clip-rule="evenodd" d="M14.3705 43.4458C13.9294 42.9284 13.7068 42.2659 13.748 41.5935V41.7919C13.7068 42.4644 13.9294 43.1268 14.3705 43.6443L14.4652 43.5517L14.3705 43.4458ZM43.5445 28.8651L36.7787 32.6095L36.9005 32.7286L43.5445 29.0503C43.9214 28.8771 44.2451 28.6098 44.4826 28.2753C44.7202 27.9408 44.8634 27.5509 44.8976 27.145C44.8215 27.5138 44.66 27.8606 44.4254 28.1588C44.1908 28.4569 43.8895 28.6986 43.5445 28.8651Z" fill="#001933"/>
<path opacity="0.25" fill-rule="evenodd" clip-rule="evenodd" d="M17.1715 10.7647L43.5445 25.4248C43.8895 25.5913 44.1908 25.833 44.4254 26.1312C44.66 26.4293 44.8215 26.7761 44.8976 27.1449C44.8634 26.739 44.7202 26.3491 44.4826 26.0146C44.2451 25.6801 43.9215 25.4128 43.5445 25.2396L17.1715 10.5794C15.2906 9.52095 13.7751 10.3942 13.7751 12.5112V12.7097C13.7751 10.5927 15.2906 9.71942 17.1715 10.7647Z" fill="#001933"/>
<path fill-rule="evenodd" clip-rule="evenodd" d="M63.4764 18.108C62.7286 18.3997 61.9265 18.5349 61.1219 18.505C60.5033 18.5561 59.8806 18.4757 59.2967 18.2693C58.7129 18.0629 58.1816 17.7354 57.7393 17.3093C57.2971 16.8831 56.9544 16.3685 56.7348 15.8006C56.5152 15.2328 56.4239 14.6252 56.4671 14.0196C56.4334 13.3878 56.5367 12.7562 56.7703 12.1662C57.0039 11.5762 57.3625 11.0412 57.8226 10.5964C58.2826 10.1515 58.8337 9.80685 59.4397 9.58503C60.0456 9.36321 60.6927 9.26924 61.3385 9.30929C62.0989 9.28238 62.8562 9.41783 63.5576 9.70623L63.1923 11.0293C62.6277 10.7949 62.0194 10.6777 61.4061 10.6853C60.9708 10.6607 60.5352 10.7282 60.129 10.8833C59.7228 11.0383 59.3556 11.2772 59.0525 11.5837C58.7493 11.8901 58.5174 12.257 58.3724 12.6591C58.2275 13.0612 58.173 13.4892 58.2127 13.9137C58.1683 14.3376 58.2191 14.7658 58.3617 15.1683C58.5042 15.5709 58.735 15.9382 59.0379 16.2445C59.3408 16.5507 59.7085 16.7886 60.1152 16.9413C60.5219 17.0941 60.9579 17.1581 61.3926 17.1289C62.0135 17.138 62.63 17.0256 63.2058 16.7981L63.4764 18.108ZM66.9405 11.9291V14.5753H67.1841L69.2138 11.9291H71.1894L68.5643 14.7605C69.4709 14.8929 70.0257 15.5941 70.4722 16.6261C70.6752 17.1025 70.9188 17.8169 71.2165 18.3727H69.4844C69.2475 17.9473 69.044 17.505 68.8755 17.0495C68.7884 16.6694 68.5699 16.3302 68.2569 16.0892C67.9438 15.8482 67.5554 15.72 67.157 15.7264H66.9405V18.3727H65.2761V11.9291H66.9405ZM76.4802 18.3727L76.372 17.6582C76.1348 17.9362 75.8363 18.1581 75.4988 18.307C75.1613 18.456 74.7936 18.5282 74.4235 18.5182C74.1496 18.5407 73.874 18.5064 73.6147 18.4174C73.3555 18.3284 73.1184 18.1868 72.919 18.0018C72.7197 17.8169 72.5626 17.5928 72.458 17.3443C72.3535 17.0958 72.3039 16.8285 72.3125 16.56C72.3125 14.9325 73.7875 14.1122 76.2231 14.1254V14.0196C76.2231 13.5962 76.0472 12.8949 74.87 12.8949C74.2462 12.896 73.6341 13.0605 73.0974 13.3713L72.7726 12.3128C73.5019 11.9226 74.3231 11.7264 75.1542 11.7438C75.519 11.7064 75.8877 11.7491 76.2334 11.8689C76.5792 11.9886 76.8932 12.1824 77.1526 12.436C77.412 12.6896 77.6101 12.9967 77.7326 13.3347C77.8551 13.6728 77.8987 14.0334 77.8605 14.3901V16.8246C77.8537 17.3406 77.8848 17.8593 77.9552 18.3727H76.4802ZM76.2637 15.2369C75.0865 15.2369 73.9634 15.4618 73.9634 16.4409C73.9507 16.5656 73.9666 16.6915 74.0097 16.8095C74.0528 16.9274 74.1222 17.0346 74.2128 17.1232C74.3034 17.2118 74.413 17.2796 74.5337 17.3218C74.6543 17.364 74.7831 17.3794 74.9106 17.3671C75.204 17.383 75.4947 17.3051 75.7389 17.1452C75.983 16.9853 76.1672 16.752 76.2637 16.4806C76.2819 16.3622 76.2819 16.2418 76.2637 16.1234V15.2369ZM81.514 11.9291V13.9137C81.514 14.6812 81.7981 15.131 82.6642 15.131C83.0669 15.1259 83.4585 15.0013 83.7873 14.7738V11.9291H85.4923V18.3727H83.7873V15.8984C83.2639 16.1898 82.671 16.3405 82.0688 16.3351C81.7673 16.3658 81.4625 16.3291 81.1776 16.2279C80.8927 16.1267 80.635 15.9636 80.4239 15.7508C80.2128 15.5381 80.0539 15.2812 79.9591 14.9997C79.8643 14.7181 79.8361 14.4192 79.8767 14.1254V11.9291H81.514ZM91.5273 18.3727L91.4191 17.6582C91.1819 17.9362 90.8833 18.1581 90.5458 18.307C90.2083 18.456 89.8407 18.5282 89.4705 18.5182C89.1967 18.5407 88.9211 18.5064 88.6618 18.4174C88.4025 18.3284 88.1654 18.1868 87.9661 18.0018C87.7667 17.8169 87.6096 17.5928 87.5051 17.3443C87.4006 17.0958 87.351 16.8285 87.3596 16.56C87.3596 14.9325 88.8345 14.1122 91.2702 14.1254V14.0196C91.2702 13.5962 91.0943 12.8949 89.9171 12.8949C89.3079 12.9167 88.7152 13.0947 88.1986 13.411L87.8738 12.3525C88.6028 11.9617 89.4242 11.7655 90.2553 11.7835C90.6201 11.7461 90.9889 11.7888 91.3346 11.9086C91.6804 12.0283 91.9944 12.2221 92.2538 12.4757C92.5132 12.7293 92.7113 13.0364 92.8338 13.3744C92.9562 13.7125 92.9999 14.0731 92.9617 14.4298V16.8246C92.9535 17.3419 92.9847 17.8593 93.0564 18.3727H91.5273ZM91.3108 15.2369C90.1336 15.2369 89.0104 15.4618 89.0104 16.4409C89.0002 16.5651 89.0177 16.6899 89.0617 16.8068C89.1057 16.9237 89.1752 17.0299 89.2652 17.118C89.3553 17.206 89.4639 17.2739 89.5834 17.3169C89.703 17.36 89.8307 17.3771 89.9577 17.3671C90.2511 17.383 90.5418 17.3051 90.7859 17.1452C91.03 16.9853 91.2143 16.752 91.3108 16.4806C91.3296 16.3622 91.3296 16.2417 91.3108 16.1234V15.2369ZM100.106 11.9291V13.186H98.1307V18.3727H96.4663V13.186H94.4907V11.9291H100.106ZM103.408 11.9291V13.9137C103.75 13.886 104.094 13.886 104.436 13.9137C105.952 13.9137 107.549 14.4165 107.549 16.1234C107.562 16.4373 107.495 16.7496 107.353 17.0316C107.211 17.3136 106.999 17.5564 106.737 17.7376C105.829 18.2723 104.777 18.526 103.719 18.4653C103.016 18.4653 102.366 18.4653 101.717 18.3727V11.9291H103.408ZM103.408 17.2215C103.665 17.2401 103.922 17.2401 104.179 17.2215C104.951 17.2215 105.925 16.9701 105.925 16.0572C105.925 15.1442 104.896 14.9061 104.152 14.9061C103.905 14.8843 103.656 14.8843 103.408 14.9061V17.2215ZM114.369 11.9291V14.2445C114.369 15.2633 114.369 15.9513 114.274 16.8908C114.626 16.1366 114.829 15.6603 115.167 14.9855L116.791 11.9688H118.807V18.4123H117.264V16.0704C117.264 15.0384 117.264 14.5621 117.373 13.3448C117.048 14.1122 116.831 14.5753 116.507 15.1972C115.992 16.1498 115.397 17.3142 114.829 18.3727H112.785V11.9291H114.369ZM121.77 14.5356H122.569C123.475 14.5356 124.003 14.1784 124.003 13.7153C124.003 13.2522 123.556 12.9346 122.812 12.9346C122.239 12.946 121.678 13.1058 121.188 13.3977L120.837 12.4319C121.583 12.0036 122.434 11.7839 123.299 11.7968C124.409 11.7968 125.762 12.2202 125.762 13.5036C125.728 13.8716 125.565 14.2169 125.302 14.4818C125.038 14.7467 124.689 14.9151 124.314 14.959C124.765 14.948 125.202 15.1091 125.533 15.408C125.864 15.7069 126.062 16.1201 126.087 16.56C126.087 18.0551 124.368 18.5182 123.015 18.5182C122.192 18.5044 121.387 18.2858 120.674 17.8831L121.053 16.8511C121.62 17.1302 122.244 17.2798 122.88 17.2877C123.8 17.2877 124.233 16.9172 124.233 16.4144C124.233 15.9117 123.516 15.528 122.582 15.528H121.77V14.5356Z" fill="white"/>
<defs>
<linearGradient id="paint0_linear_10_201" x1="23.8967" y1="-9.34918" x2="-2.86239" y2="-2.09191" gradientUnits="userSpaceOnUse">
<stop stop-color="#00A0FF"/>
<stop offset="0.01" stop-color="#00A1FF"/>
<stop offset="0.26" stop-color="#00BEFF"/>
<stop offset="0.51" stop-color="#00D2FF"/>
<stop offset="0.76" stop-color="#00DFFF"/>
<stop offset="1" stop-color="#00E3FF"/>
</linearGradient>
<linearGradient id="paint1_linear_10_201" x1="46.0207" y1="13.6491" x2="13.288" y2="13.6491" gradientUnits="userSpaceOnUse">
<stop stop-color="#FFE000"/>
<stop offset="0.41" stop-color="#FFBD00"/>
<stop offset="0.78" stop-color="#FFA500"/>
<stop offset="1" stop-color="#FF9C00"/>
</linearGradient>
<linearGradient id="paint2_linear_10_201" x1="13.8752" y1="18.5805" x2="-6.98106" y2="54.4606" gradientUnits="userSpaceOnUse">
<stop stop-color="#FF3A44"/>
<stop offset="1" stop-color="#C31162"/>
</linearGradient>
<linearGradient id="paint3_linear_10_201" x1="1.20428" y1="6.10213" x2="10.5134" y2="22.1247" gradientUnits="userSpaceOnUse">
<stop stop-color="#32A071"/>
<stop offset="0.07" stop-color="#2DA771"/>
<stop offset="0.48" stop-color="#15CF74"/>
<stop offset="0.8" stop-color="#06E775"/>
<stop offset="1" stop-color="#00F076"/>
</linearGradient>
</defs>
</svg>
