<svg width="203" height="68" viewBox="0 0 203 68" fill="none" xmlns="http://www.w3.org/2000/svg">
<rect x="0.235352" width="202.309" height="67.4364" rx="15" fill="#030303"/>
<path fill-rule="evenodd" clip-rule="evenodd" d="M51.2467 33.8474C51.2075 29.4455 54.819 27.3053 54.9828 27.2042C52.9395 24.1953 49.7691 23.7829 48.6554 23.7514C45.9938 23.4687 43.4133 25.359 42.0561 25.359C40.6732 25.359 38.5853 23.7788 36.3363 23.8266C33.4406 23.8716 30.7302 25.5639 29.2458 28.1903C26.1795 33.5483 28.4664 41.4222 31.4027 45.7545C32.8722 47.8742 34.5894 50.2425 36.837 50.1592C39.0359 50.0677 39.8572 48.7442 42.5108 48.7442C45.1399 48.7442 45.9112 50.1592 48.2035 50.1059C50.5634 50.0677 52.0491 47.9753 53.4672 45.8351C55.1654 43.4039 55.8488 41.0097 55.8759 40.8868C55.819 40.8677 51.29 39.1249 51.2467 33.8474ZM46.9166 20.9038C48.0993 19.4109 48.9085 17.38 48.6838 15.3176C46.9721 15.3955 44.8301 16.5127 43.5987 17.9741C42.508 19.2607 41.5338 21.3695 41.7855 23.3526C43.7083 23.496 45.6825 22.3734 46.9166 20.9038ZM77.8064 42.2772L76.2841 37.531C76.1231 37.0461 75.82 35.9043 75.3748 34.1069H75.3207C75.0513 35.252 74.7671 36.3934 74.4682 37.531L72.9703 42.2772H77.8064ZM83.0702 49.8573H79.9985L78.3139 44.5171H72.4628L70.8593 49.8573H67.8689L73.6644 31.6799H77.2449L83.0702 49.8573ZM95.0375 43.2469C95.0375 41.9712 94.7533 40.9196 94.1837 40.0919C93.5598 39.2314 92.7222 38.7971 91.6722 38.7971C90.9604 38.7971 90.3136 39.0375 89.7358 39.5128C89.1561 39.9886 88.755 40.6503 88.5992 41.388C88.5112 41.7472 88.4666 42.0436 88.4666 42.2758V44.4611C88.4666 45.4144 88.7561 46.2189 89.3353 46.8744C89.9131 47.5314 90.6668 47.8592 91.5924 47.8592C92.6789 47.8592 93.5247 47.4358 94.1309 46.5917C94.7357 45.7463 95.0375 44.6318 95.0375 43.2469ZM97.9779 43.1403C97.9779 45.3693 97.3812 47.1312 96.1877 48.4246C95.1187 49.576 93.7926 50.151 92.2067 50.151C90.4977 50.151 89.2676 49.5309 88.5207 48.2894H88.4666V55.1935H85.5816V41.063C85.5816 39.6617 85.5451 38.2235 85.4734 36.7484H88.0119L88.1729 38.8258H88.2257C89.1865 37.2606 90.6479 36.4793 92.6072 36.4793C94.139 36.4793 95.4177 37.0898 96.4421 38.3122C97.4664 39.536 97.9779 41.1449 97.9779 43.1403ZM109.974 43.2469C109.974 41.9712 109.688 40.9196 109.117 40.0919C108.493 39.2314 107.658 38.7971 106.607 38.7971C105.892 38.7971 105.248 39.0375 104.669 39.5128C104.091 39.9893 103.691 40.6508 103.535 41.388C103.446 41.7472 103.4 42.0436 103.4 42.2758V44.4611C103.4 45.4144 103.691 46.2189 104.266 46.8744C104.847 47.5314 105.6 47.8592 106.526 47.8592C107.614 47.8592 108.459 47.4358 109.064 46.5917C109.669 45.7463 109.974 44.6318 109.974 43.2469ZM112.913 43.1403C112.913 45.3693 112.315 47.1312 111.121 48.4246C110.053 49.576 108.726 50.151 107.14 50.151C105.431 50.151 104.201 49.5309 103.454 48.2894H103.401V55.1935H100.516V41.063C100.516 39.6617 100.48 38.2235 100.41 36.7484H102.947L103.108 38.8258H103.16C104.123 37.2606 105.581 36.4793 107.542 36.4793C109.072 36.4793 110.351 37.0898 111.377 38.3122C112.4 39.536 112.913 41.1449 112.913 43.1403ZM129.611 44.7588C129.611 46.3049 129.077 47.5628 128.01 48.5339C126.837 49.5951 125.203 50.125 123.105 50.125C121.17 50.125 119.613 49.7467 118.438 48.9928L119.106 46.5644C120.373 47.3388 121.762 47.7253 123.276 47.7253C124.363 47.7253 125.209 47.4768 125.816 46.9823C126.423 46.4879 126.723 45.8241 126.723 44.9965C126.723 44.2589 126.475 43.6375 125.975 43.1321C125.478 42.6282 124.649 42.1624 123.492 41.7267C120.339 40.5399 118.762 38.8039 118.762 36.5148C118.762 35.0207 119.317 33.7969 120.42 32.8408C121.521 31.8875 122.991 31.4095 124.829 31.4095C126.467 31.4095 127.828 31.6977 128.915 32.2727L128.192 34.6464C127.178 34.0892 126.03 33.8092 124.746 33.8092C123.731 33.8092 122.938 34.0619 122.37 34.5659C122.14 34.7715 121.956 35.0248 121.831 35.3086C121.707 35.5924 121.645 35.8999 121.649 36.2103C121.649 36.9287 121.923 37.5228 122.477 37.9899C122.957 38.4215 123.83 38.8886 125.095 39.3926C126.644 40.0222 127.782 40.7584 128.515 41.6025C129.245 42.4492 129.611 43.5009 129.611 44.7588ZM139.148 38.9337H135.968V45.2983C135.968 46.9154 136.528 47.7253 137.652 47.7253C138.167 47.7253 138.596 47.6789 138.934 47.5901L139.012 49.8027C138.444 50.0158 137.697 50.1237 136.769 50.1237C135.629 50.1237 134.739 49.774 134.098 49.0734C133.458 48.3714 133.137 47.194 133.137 45.5401V38.9337H131.24V36.7484H133.136V34.3501L135.968 33.4869V36.7511H139.148V38.9364V38.9337ZM150.502 43.2892C150.502 42.0818 150.246 41.0452 149.728 40.1807C149.123 39.1331 148.258 38.61 147.138 38.61C145.977 38.61 145.097 39.1345 144.493 40.1807C143.974 41.0452 143.717 42.0982 143.717 43.3438C143.717 44.5539 143.974 45.5906 144.493 46.4538C145.115 47.4986 145.988 48.0217 147.111 48.0217C148.214 48.0217 149.077 47.4891 149.701 46.4265C150.235 45.5442 150.502 44.4966 150.502 43.2892ZM153.496 43.195C153.496 45.2082 152.925 46.8621 151.786 48.1556C150.591 49.4872 149.007 50.151 147.03 50.151C145.123 50.151 143.606 49.5145 142.475 48.2375C141.344 46.9605 140.778 45.3516 140.778 43.4108C140.778 41.3798 141.36 39.7163 142.528 38.4215C143.694 37.1267 145.267 36.4807 147.244 36.4807C149.149 36.4807 150.682 37.1172 151.839 38.3956C152.944 39.6357 153.496 41.2351 153.496 43.195ZM162.872 39.3106C162.572 39.2559 162.268 39.2289 161.963 39.2301C160.948 39.2301 160.163 39.6179 159.611 40.391C159.13 41.0739 158.89 41.9371 158.89 42.9792V49.856H156.007L156.032 40.8758C156.032 39.3653 155.996 37.9899 155.924 36.7498H158.438L158.544 39.2574H158.622C158.927 38.3956 159.407 37.7017 160.066 37.1814C160.668 36.7274 161.4 36.4817 162.151 36.4807C162.418 36.4807 162.659 36.4985 162.872 36.534V39.3106ZM173.024 41.9275C173.043 41.0643 172.855 40.3186 172.464 39.6876C171.964 38.8804 171.197 38.4761 170.165 38.4761C169.22 38.4761 168.454 38.8709 167.867 39.663C167.387 40.2913 167.101 41.0466 167.014 41.9275H173.024ZM175.775 42.6814C175.782 43.1245 175.747 43.5673 175.669 44.0035H167.014C167.048 45.2983 167.466 46.2871 168.269 46.97C168.998 47.5806 169.943 47.8851 171.1 47.8851C172.381 47.8851 173.55 47.6803 174.602 47.2664L175.054 49.2878C173.825 49.8287 172.374 50.0977 170.7 50.0977C168.687 50.0977 167.106 49.4995 165.956 48.3031C164.81 47.108 164.234 45.5032 164.234 43.4914C164.234 41.5137 164.767 39.8665 165.837 38.5554C166.959 37.154 168.473 36.452 170.378 36.452C172.25 36.452 173.667 37.154 174.629 38.5554C175.392 39.6712 175.775 41.0452 175.775 42.6814ZM76.3694 24.8154C75.977 25.0203 75.1109 25.2251 74.0149 25.2251C71.1218 25.2251 69.3627 23.395 69.3627 20.5978C69.3627 17.5671 71.4453 15.7383 74.2327 15.7383C75.3274 15.7383 76.1123 15.9691 76.4506 16.1467L76.0852 17.4852C75.6522 17.2939 75.0568 17.13 74.2991 17.13C72.4479 17.13 71.1056 18.3033 71.1056 20.5159C71.1056 22.5359 72.2829 23.832 74.2855 23.832C74.9621 23.832 75.6644 23.6954 76.0987 23.4906L76.3694 24.8154ZM79.8362 18.4398V21.1988H80.0797L82.1095 18.4398H84.0851L81.4599 21.3627C82.3666 21.4992 82.9186 22.2231 83.3652 23.2871C83.5695 23.7788 83.8117 24.5136 84.1094 25.0872H82.3787C82.2028 24.8004 82.0134 24.3087 81.7712 23.6681C81.4193 22.7667 80.9187 22.3296 80.0527 22.3296H79.8362V25.0886H78.1731V18.4385H79.8375L79.8362 18.4398ZM89.1607 21.8393C87.9835 21.812 86.8617 22.0715 86.8617 23.0822C86.8617 23.7378 87.2812 24.0355 87.8089 24.0355C88.472 24.0355 88.9591 23.5998 89.108 23.1218C89.1435 23.0022 89.1617 22.878 89.1621 22.753V21.838L89.1607 21.8393ZM89.3772 25.0872L89.269 24.3497H89.2284C88.8225 24.8687 88.1323 25.2374 87.2799 25.2374C85.9565 25.2374 85.2109 24.2677 85.2109 23.2584C85.2109 21.5798 86.6858 20.7317 89.1215 20.7467V20.6374C89.1215 20.2004 88.9456 19.4765 87.7819 19.4765C87.1324 19.4765 86.4558 19.6814 86.0092 19.9682L85.6845 18.8769C86.1716 18.5764 87.0241 18.2896 88.066 18.2896C90.1756 18.2896 90.7832 19.6418 90.7832 21.0895V23.4892C90.7832 24.0902 90.8102 24.6775 90.8779 25.0872H89.3772ZM94.4205 18.4398V20.5295C94.4205 21.3217 94.7046 21.7861 95.5706 21.7861C95.9888 21.7861 96.4218 21.6222 96.6924 21.4173V18.4385H98.3554V25.0858H96.691V22.5359H96.664C96.2445 22.809 95.5706 22.9866 94.9482 22.9866C93.6086 22.9866 92.7561 22.2504 92.7561 20.7084V18.4385H94.4205V18.4398ZM104.213 21.8393C103.037 21.812 101.914 22.0715 101.914 23.0822C101.914 23.7378 102.334 24.0355 102.861 24.0355C103.524 24.0355 104.012 23.5998 104.16 23.1218C104.201 22.9989 104.215 22.8623 104.215 22.753V21.838L104.213 21.8393ZM104.43 25.0872L104.321 24.3497H104.281C103.875 24.8687 103.185 25.2374 102.334 25.2374C101.009 25.2374 100.265 24.2677 100.265 23.2584C100.265 21.5798 101.74 20.7317 104.174 20.7467V20.6374C104.174 20.2004 103.998 19.4765 102.834 19.4765C102.185 19.4765 101.508 19.6814 101.064 19.9682L100.74 18.8769C101.225 18.5764 102.078 18.2896 103.119 18.2896C105.229 18.2896 105.836 19.6418 105.836 21.0895V23.4892C105.836 24.0902 105.865 24.6775 105.933 25.0872H104.43ZM113.007 18.4398V19.7374H111.033V25.0872H109.37V19.736H107.396V18.4398H113.007ZM116.293 23.9563C116.509 23.9836 116.726 24.0109 117.064 24.0109C117.835 24.0109 118.81 23.7514 118.81 22.809C118.81 21.8393 117.781 21.6208 117.037 21.6208C116.753 21.6208 116.523 21.6481 116.293 21.6891V23.9563ZM116.306 18.4398V20.5432C116.577 20.4885 117.01 20.4612 117.362 20.4612C118.877 20.4612 120.474 20.9802 120.474 22.7394C120.474 23.5179 120.149 24.0506 119.659 24.4057C118.876 25.0066 117.631 25.1569 116.645 25.1569C115.941 25.1569 115.24 25.1159 114.642 25.0612V18.4412L116.306 18.4398ZM127.268 18.4398V20.83C127.268 21.8817 127.228 22.5905 127.174 23.5193H127.214C127.566 22.7408 127.769 22.2491 128.106 21.5525L129.73 18.4398H131.744V25.0872H130.161V22.7134C130.161 21.6508 130.202 21.1592 130.27 19.9013H130.215C129.891 20.6934 129.674 21.1714 129.349 21.8134C128.835 22.7967 128.243 23.9987 127.674 25.0886H125.685V18.4412L127.268 18.4398ZM134.67 21.1291H135.468C136.375 21.1291 136.901 20.7603 136.901 20.2823C136.901 19.8056 136.455 19.4779 135.711 19.4779C135.156 19.4779 134.547 19.6691 134.087 19.9559L133.738 18.9588C134.455 18.5081 135.347 18.3033 136.199 18.3033C137.307 18.3033 138.659 18.7403 138.659 20.0651C138.659 20.9256 137.901 21.4036 137.211 21.5675V21.5948C138.091 21.6905 138.957 22.2231 138.957 23.2038C138.957 24.7471 137.238 25.2251 135.885 25.2251C135.022 25.2251 134.156 25.0066 133.508 24.6242L133.887 23.5589C134.347 23.8047 135.049 24.0096 135.712 24.0096C136.631 24.0096 137.131 23.6272 137.131 23.1082C137.131 22.4116 136.414 22.1944 135.481 22.1944H134.669L134.67 21.1291Z" fill="white"/>
</svg>
