<?xml version="1.0" encoding="UTF-8" standalone="no"?>
<!-- Created with Inkscape (http://www.inkscape.org/) -->

<svg
   width="18mm"
   height="18mm"
   viewBox="0 0 18 18.000001"
   version="1.1"
   id="svg201"
   inkscape:version="1.2.2 (732a01da63, 2022-12-09)"
   sodipodi:docname="favicon.svg"
   xmlns:inkscape="http://www.inkscape.org/namespaces/inkscape"
   xmlns:sodipodi="http://sodipodi.sourceforge.net/DTD/sodipodi-0.dtd"
   xmlns="http://www.w3.org/2000/svg"
   xmlns:svg="http://www.w3.org/2000/svg">
  <sodipodi:namedview
     id="namedview203"
     pagecolor="#ffffff"
     bordercolor="#000000"
     borderopacity="0.25"
     inkscape:showpageshadow="2"
     inkscape:pageopacity="0.0"
     inkscape:pagecheckerboard="false"
     inkscape:deskcolor="#d1d1d1"
     inkscape:document-units="mm"
     showgrid="false"
     inkscape:zoom="2.9825758"
     inkscape:cx="53.644907"
     inkscape:cy="81.137922"
     inkscape:window-width="1920"
     inkscape:window-height="1017"
     inkscape:window-x="1912"
     inkscape:window-y="-8"
     inkscape:window-maximized="1"
     inkscape:current-layer="layer1" />
  <defs
     id="defs198" />
  <g
     inkscape:label="Layer 1"
     inkscape:groupmode="layer"
     id="layer1"
     transform="translate(-29.324046,-190.13406)">
    <path
       fill-rule="evenodd"
       clip-rule="evenodd"
       d="m 46.966277,196.93218 c 0,-0.49574 -0.123031,-0.96212 -0.339778,-1.3701 -0.482785,-0.90769 -1.430364,-1.52479 -2.520368,-1.52479 h -6.549019 c -0.309668,0 -0.503052,0.33932 -0.348245,0.61054 l 0.521653,0.91425 1.562946,2.7399 0.869845,1.52479 1.214728,2.12934 c 0.154834,0.27122 -0.03858,0.61055 -0.348244,0.61055 h -0.811028 c -0.143563,0 -0.276436,-0.0775 -0.348218,-0.20341 l -3.880035,-6.80117 -0.521652,-0.91425 c -0.154835,-0.27122 -0.541603,-0.27122 -0.696437,0 l -0.521652,0.91425 -3.996018,7.00458 -0.521357,0.91454 c -0.154829,0.27122 0.03857,0.61055 0.348227,0.61055 h 2.804956 1.717781 1.033145 1.042987 c 0.309642,0 0.503053,-0.33904 0.348219,-0.61055 l -0.405369,-0.71083 c -0.07178,-0.12592 -0.204655,-0.20342 -0.348218,-0.20342 h -3.583913 c -0.309669,0 -0.503052,-0.33932 -0.348218,-0.61055 l 2.429695,-4.25897 c 0.154834,-0.27125 0.541628,-0.27125 0.696463,0 l 2.777648,4.86952 0.753878,1.32136 c 0.07178,0.12594 0.204655,0.20344 0.348244,0.20344 h 1.507464 1.739741 1.043278 c 0.309642,0 0.503053,-0.33904 0.348219,-0.61055 l -0.260959,-0.45726 -0.260959,-0.45728 -1.006395,-1.76411 -0.556551,-0.97578 -0.434922,-0.7624 -0.434949,-0.76239 -0.374121,-0.65556 -0.840872,-1.47379 c -0.154808,-0.27123 0.03858,-0.61055 0.348245,-0.61055 h 0.870982 3.068452 c 0.747395,0 1.353502,0.6134 1.353502,1.3701 0,0.75668 -0.606107,1.37009 -1.353502,1.37009 h -0.636773 c -0.309668,0 -0.503052,0.33903 -0.348218,0.61052 l 0.405368,0.71083 c 0.07178,0.12594 0.204655,0.20344 0.348218,0.20344 h 0.231405 c 1.090004,0 2.037556,-0.61711 2.520368,-1.52479 0.216746,-0.4077 0.340042,-0.87437 0.339778,-1.37009 z"
       fill="#0066d0"
       id="path218"
       style="stroke-width:0.264583" />
  </g>
</svg>
