<svg width="230" height="38" viewBox="0 0 230 38" fill="none" xmlns="http://www.w3.org/2000/svg">
<g clip-path="url(#clip0_4_162)">
<path fill-rule="evenodd" clip-rule="evenodd" d="M65.339 10.9413C65.339 9.06767 64.874 7.30496 64.0548 5.76299C62.2301 2.33233 58.6487 0 54.529 0H29.7768C28.6064 0 27.8755 1.28246 28.4606 2.30757L30.4322 5.76299L36.3394 16.1185L39.627 21.8815L44.2181 29.9294C44.8033 30.9545 44.0723 32.237 42.9019 32.237H39.8366C39.294 32.237 38.7918 31.9441 38.5205 31.4682L23.8558 5.76299L21.8842 2.30757C21.299 1.28246 19.8372 1.28246 19.252 2.30757L17.2804 5.76299L2.17734 32.237L0.206859 35.6935C-0.378325 36.7186 0.352624 38.0011 1.52299 38.0011H12.1244H18.6168H22.5216H26.4636C27.6339 38.0011 28.3649 36.7197 27.7797 35.6935L26.2476 33.0069C25.9763 32.531 25.4741 32.2381 24.9315 32.2381H11.386C10.2156 32.2381 9.4847 30.9556 10.0699 29.9305L19.253 13.8336C19.8382 12.8084 21.3001 12.8084 21.8853 13.8336L32.3835 32.2381L35.2328 37.2322C35.5041 37.7082 36.0063 38.0011 36.549 38.0011H42.2465H48.8219H52.765C53.9353 38.0011 54.6663 36.7197 54.0811 35.6935L53.0948 33.9653L52.1085 32.237L48.3048 25.5695L46.2013 21.8815L44.5575 19L42.9136 16.1185L41.4996 13.6408L38.3215 8.07056C37.7364 7.04545 38.4673 5.76299 39.6377 5.76299H42.9296H54.5269C57.3517 5.76299 59.6425 8.08133 59.6425 10.9413C59.6425 13.8012 57.3517 16.1196 54.5269 16.1196H52.1202C50.9498 16.1196 50.2189 17.401 50.8041 18.4271L52.3362 21.1137C52.6075 21.5897 53.1097 21.8826 53.6523 21.8826H54.5269C58.6466 21.8826 62.2279 19.5502 64.0527 16.1196C64.8719 14.5787 65.3379 12.8149 65.3369 10.9413H65.339Z" fill="#0066D0"/>
<path d="M89.3194 30.2643C89.4482 30.6541 89.528 30.9621 89.5599 31.1893C89.5918 31.4165 89.5492 31.5866 89.4311 31.7008C89.313 31.8149 89.1045 31.8849 88.8055 31.9118C88.5066 31.9387 88.0937 31.9527 87.5703 31.9527C87.0468 31.9527 86.5999 31.9441 86.2956 31.928C85.9913 31.9118 85.7583 31.8795 85.5977 31.8311C85.437 31.7826 85.3253 31.7148 85.2604 31.6286C85.1965 31.5425 85.1423 31.4283 85.0997 31.2873L83.7038 27.0663H75.9081L74.593 31.1731C74.5504 31.325 74.494 31.452 74.4249 31.5543C74.3557 31.6577 74.2429 31.7385 74.0876 31.7977C73.9323 31.8569 73.7131 31.8978 73.4301 31.9194C73.1471 31.9409 72.7747 31.9517 72.315 31.9517C71.8235 31.9517 71.4383 31.9355 71.1606 31.9032C70.8829 31.8709 70.6903 31.7923 70.5829 31.6674C70.4754 31.5436 70.4382 31.367 70.4701 31.1398C70.502 30.9126 70.5829 30.61 70.7106 30.2309L77.1103 11.5949C77.1742 11.4108 77.2497 11.2622 77.3348 11.148C77.42 11.0339 77.5562 10.9477 77.7434 10.8885C77.9307 10.8293 78.1903 10.7916 78.5212 10.7744C78.8521 10.7582 79.2915 10.7496 79.8362 10.7496C80.4672 10.7496 80.9694 10.7582 81.3439 10.7744C81.7184 10.7905 82.0099 10.8282 82.2185 10.8885C82.427 10.9477 82.577 11.0371 82.6675 11.1566C82.7579 11.2762 82.8356 11.4377 82.9005 11.6434L89.3162 30.2632L89.3194 30.2643ZM79.7916 14.8587H79.7756L76.8401 23.7874H82.7271L79.7916 14.8587Z" fill="#0066D0"/>
<path d="M106.434 17.2287C106.434 18.4088 106.253 19.4523 105.89 20.3621C105.526 21.271 104.997 22.0366 104.301 22.6589C103.605 23.2813 102.753 23.7551 101.743 24.0792C100.733 24.4033 99.5431 24.5659 98.1749 24.5659H96.4427V31.27C96.4427 31.3788 96.4076 31.4757 96.3384 31.5619C96.2693 31.6491 96.1544 31.7191 95.9937 31.7729C95.8331 31.8268 95.6192 31.8698 95.3521 31.9032C95.0851 31.9355 94.7425 31.9517 94.3254 31.9517C93.9083 31.9517 93.5796 31.9355 93.3072 31.9032C93.0348 31.8709 92.8178 31.8278 92.6571 31.7729C92.4964 31.7191 92.3847 31.6491 92.3198 31.5619C92.256 31.4757 92.2241 31.3777 92.2241 31.27V12.3756C92.2241 11.8673 92.3549 11.4851 92.6167 11.2309C92.8784 10.9768 93.2231 10.8498 93.6509 10.8498H98.543C99.0346 10.8498 99.5027 10.8691 99.9464 10.9068C100.39 10.9445 100.922 11.0264 101.542 11.1502C102.163 11.2751 102.79 11.5045 103.427 11.8404C104.063 12.1764 104.606 12.6006 105.055 13.1143C105.504 13.6279 105.846 14.2287 106.081 14.9157C106.316 15.6027 106.434 16.3737 106.434 17.2287ZM102.023 17.5366C102.023 16.8012 101.895 16.195 101.638 15.719C101.382 15.2431 101.066 14.891 100.692 14.6638C100.318 14.4366 99.9251 14.2933 99.5133 14.233C99.1016 14.1738 98.6771 14.1437 98.2387 14.1437H96.4427V21.2699H98.3355C99.009 21.2699 99.5729 21.1784 100.027 20.9942C100.482 20.8101 100.853 20.5538 101.142 20.2232C101.431 19.8937 101.65 19.4986 101.8 19.0388C101.95 18.579 102.024 18.0783 102.024 17.5377L102.023 17.5366Z" fill="#0066D0"/>
<path d="M126.645 24.0308C126.645 25.3186 126.457 26.4719 126.083 27.4884C125.708 28.5059 125.158 29.3663 124.431 30.0694C123.703 30.7726 122.805 31.3088 121.735 31.676C120.666 32.0443 119.436 32.2284 118.047 32.2284C116.742 32.2284 115.571 32.0637 114.533 31.7331C113.496 31.4036 112.619 30.9029 111.903 30.232C111.187 29.5612 110.638 28.7256 110.259 27.7242C109.88 26.7238 109.69 25.5512 109.69 24.2095V11.4345C109.69 11.3268 109.722 11.2288 109.786 11.1427C109.85 11.0565 109.965 10.9854 110.131 10.9316C110.297 10.8778 110.513 10.8347 110.781 10.8013C111.048 10.769 111.39 10.7529 111.808 10.7529C112.225 10.7529 112.55 10.769 112.818 10.8013C113.085 10.8336 113.299 10.8767 113.46 10.9316C113.621 10.9854 113.735 11.0565 113.805 11.1427C113.874 11.2299 113.909 11.3268 113.909 11.4345V23.837C113.909 24.6704 114.01 25.3929 114.213 26.0045C114.416 26.6162 114.708 27.1223 115.088 27.5228C115.468 27.9234 115.922 28.2238 116.451 28.4241C116.98 28.6244 117.571 28.7245 118.223 28.7245C118.876 28.7245 119.48 28.6222 120.003 28.4166C120.527 28.2109 120.97 27.9105 121.334 27.5153C121.698 27.1201 121.978 26.6334 122.177 26.0541C122.375 25.4748 122.474 24.8179 122.474 24.0814V11.4355C122.474 11.3279 122.506 11.2299 122.57 11.1437C122.633 11.0576 122.746 10.9865 122.907 10.9327C123.068 10.8788 123.284 10.8358 123.557 10.8024C123.829 10.7701 124.169 10.7539 124.575 10.7539C124.982 10.7539 125.316 10.7701 125.577 10.8024C125.839 10.8347 126.051 10.8778 126.212 10.9327C126.372 10.9865 126.484 11.0576 126.549 11.1437C126.613 11.2309 126.646 11.3279 126.646 11.4355V24.0329L126.645 24.0308Z" fill="#0066D0"/>
<path d="M146.309 31.2216C146.309 31.3411 146.279 31.4467 146.221 31.5382C146.162 31.6308 146.049 31.7062 145.883 31.7654C145.717 31.8246 145.491 31.8709 145.201 31.9032C144.913 31.9355 144.549 31.9517 144.111 31.9517C143.416 31.9517 142.916 31.9247 142.611 31.8709C142.306 31.8171 142.087 31.7352 141.953 31.6276C141.819 31.5199 141.715 31.3896 141.64 31.2378L135.368 21.271V31.2378C135.368 31.3573 135.336 31.4596 135.272 31.5457C135.209 31.6329 135.096 31.7051 134.935 31.7654C134.774 31.8246 134.561 31.8709 134.294 31.9032C134.026 31.9355 133.684 31.9517 133.267 31.9517C132.85 31.9517 132.521 31.9355 132.249 31.9032C131.976 31.8709 131.759 31.8246 131.598 31.7654C131.438 31.7062 131.323 31.6329 131.254 31.5457C131.184 31.4596 131.15 31.3562 131.15 31.2378V11.4495C131.15 11.3311 131.184 11.2277 131.254 11.1416C131.323 11.0554 131.438 10.9844 131.598 10.9305C131.759 10.8767 131.975 10.8336 132.249 10.8002C132.521 10.7679 132.86 10.7518 133.267 10.7518C133.673 10.7518 134.025 10.7679 134.294 10.8002C134.561 10.8325 134.774 10.8756 134.935 10.9305C135.096 10.9844 135.207 11.0554 135.272 11.1416C135.336 11.2288 135.368 11.3311 135.368 11.4495V20.3945L141.448 11.4657C141.522 11.3246 141.614 11.2083 141.72 11.1168C141.826 11.0253 141.966 10.9521 142.137 10.8971C142.308 10.8433 142.528 10.8056 142.795 10.783C143.062 10.7615 143.404 10.7507 143.821 10.7507C144.238 10.7507 144.602 10.7669 144.88 10.7992C145.158 10.8315 145.38 10.8778 145.546 10.937C145.712 10.9962 145.827 11.0694 145.891 11.1567C145.955 11.2439 145.987 11.3408 145.987 11.4485C145.987 11.6326 145.939 11.8221 145.842 12.017C145.746 12.2119 145.564 12.5199 145.297 12.942L139.603 20.4903L145.81 29.9865C146.045 30.4302 146.187 30.7252 146.236 30.8716C146.283 31.0181 146.308 31.1344 146.308 31.2205L146.309 31.2216Z" fill="#0066D0"/>
<path d="M165.637 24.0308C165.637 25.3186 165.45 26.4719 165.075 27.4884C164.701 28.5059 164.151 29.3663 163.423 30.0694C162.695 30.7726 161.797 31.3088 160.728 31.676C159.659 32.0443 158.429 32.2284 157.039 32.2284C155.735 32.2284 154.563 32.0637 153.526 31.7331C152.489 31.4036 151.612 30.9029 150.896 30.232C150.18 29.5612 149.631 28.7256 149.252 27.7242C148.872 26.7238 148.683 25.5512 148.683 24.2095V11.4345C148.683 11.3268 148.715 11.2288 148.778 11.1427C148.842 11.0565 148.957 10.9854 149.123 10.9316C149.289 10.8778 149.505 10.8347 149.773 10.8013C150.04 10.769 150.383 10.7529 150.8 10.7529C151.217 10.7529 151.543 10.769 151.811 10.8013C152.078 10.8336 152.292 10.8767 152.452 10.9316C152.613 10.9854 152.728 11.0565 152.797 11.1427C152.866 11.2299 152.901 11.3268 152.901 11.4345V23.837C152.901 24.6704 153.002 25.3929 153.206 26.0045C153.409 26.6162 153.7 27.1223 154.08 27.5228C154.46 27.9234 154.914 28.2238 155.443 28.4241C155.972 28.6244 156.564 28.7245 157.216 28.7245C157.868 28.7245 158.472 28.6222 158.996 28.4166C159.519 28.2109 159.963 27.9105 160.327 27.5153C160.691 27.1201 160.971 26.6334 161.169 26.0541C161.367 25.4748 161.466 24.8179 161.466 24.0814V11.4355C161.466 11.3279 161.498 11.2299 161.562 11.1437C161.626 11.0576 161.739 10.9865 161.899 10.9327C162.06 10.8788 162.276 10.8358 162.549 10.8024C162.822 10.7701 163.161 10.7539 163.568 10.7539C163.974 10.7539 164.308 10.7701 164.57 10.8024C164.832 10.8347 165.043 10.8778 165.204 10.9327C165.365 10.9865 165.476 11.0576 165.541 11.1437C165.605 11.2309 165.638 11.3279 165.638 11.4355V24.0329L165.637 24.0308Z" fill="#0066D0"/>
<path d="M181.549 30.0694C181.549 30.3946 181.535 30.667 181.508 30.8889C181.482 31.1107 181.441 31.2948 181.388 31.4413C181.335 31.5877 181.268 31.6932 181.188 31.7578C181.108 31.8224 181.015 31.8547 180.907 31.8547H171.395C171.042 31.8547 170.745 31.7492 170.505 31.5382C170.264 31.3271 170.144 30.9836 170.144 30.5077V11.4334C170.144 11.3257 170.178 11.2277 170.248 11.1416C170.318 11.0554 170.432 10.9844 170.593 10.9305C170.754 10.8767 170.97 10.8336 171.243 10.8002C171.516 10.7679 171.855 10.7518 172.261 10.7518C172.668 10.7518 173.02 10.7679 173.288 10.8002C173.555 10.8325 173.769 10.8756 173.93 10.9305C174.09 10.9844 174.205 11.0554 174.274 11.1416C174.344 11.2288 174.379 11.3257 174.379 11.4334V28.3326H180.907C181.014 28.3326 181.107 28.3627 181.188 28.4219C181.268 28.4812 181.335 28.5791 181.388 28.7137C181.441 28.8494 181.482 29.0282 181.508 29.2489C181.535 29.4707 181.549 29.7442 181.549 30.0683V30.0694Z" fill="#0066D0"/>
<path d="M208.224 31.2711C208.224 31.3799 208.194 31.4768 208.135 31.5629C208.077 31.6502 207.969 31.7201 207.815 31.774C207.66 31.8278 207.454 31.8709 207.198 31.9043C206.942 31.9366 206.615 31.9527 206.219 31.9527C205.823 31.9527 205.514 31.9366 205.256 31.9043C205 31.872 204.797 31.8289 204.647 31.774C204.497 31.7201 204.39 31.6502 204.326 31.5629C204.263 31.4768 204.23 31.3788 204.23 31.2711V14.1771H204.198L198.183 31.2539C198.14 31.395 198.07 31.5113 197.974 31.6028C197.879 31.6954 197.747 31.7675 197.582 31.8224C197.416 31.8763 197.205 31.9118 196.948 31.928C196.691 31.9441 196.381 31.9527 196.018 31.9527C195.655 31.9527 195.344 31.9387 195.088 31.9118C194.831 31.8849 194.62 31.8418 194.454 31.7815C194.288 31.7223 194.157 31.6491 194.061 31.5619C193.965 31.4757 193.9 31.3723 193.869 31.2539L188.062 14.1771H188.031V31.2711C188.031 31.3799 188.001 31.4768 187.942 31.5629C187.884 31.6502 187.774 31.7201 187.613 31.774C187.453 31.8278 187.247 31.8709 186.996 31.9043C186.745 31.9366 186.422 31.9527 186.026 31.9527C185.63 31.9527 185.321 31.9366 185.063 31.9043C184.807 31.872 184.6 31.8289 184.446 31.774C184.291 31.7201 184.184 31.6502 184.126 31.5629C184.067 31.4768 184.037 31.3788 184.037 31.2711V12.5543C184.037 12.0019 184.182 11.5798 184.47 11.288C184.759 10.9962 185.144 10.8498 185.625 10.8498H188.384C188.875 10.8498 189.298 10.8907 189.651 10.9714C190.004 11.0522 190.308 11.1879 190.565 11.3774C190.821 11.5669 191.035 11.8156 191.206 12.1236C191.378 12.4316 191.528 12.8138 191.655 13.2682L196.147 25.7838H196.21L200.862 13.3005C201 12.8461 201.154 12.4617 201.32 12.1484C201.486 11.835 201.678 11.5798 201.897 11.3849C202.116 11.19 202.376 11.0522 202.675 10.9714C202.974 10.8907 203.322 10.8498 203.718 10.8498H206.556C206.845 10.8498 207.094 10.8874 207.302 10.9639C207.511 11.0393 207.682 11.1502 207.815 11.2966C207.948 11.4431 208.05 11.6218 208.119 11.8318C208.189 12.0428 208.224 12.284 208.224 12.5543V31.2711Z" fill="#0066D0"/>
<path d="M229.749 30.2643C229.878 30.6541 229.957 30.9621 229.989 31.1893C230.021 31.4165 229.979 31.5866 229.861 31.7008C229.743 31.8149 229.534 31.8849 229.235 31.9118C228.936 31.9387 228.524 31.9527 228 31.9527C227.475 31.9527 227.029 31.9441 226.725 31.928C226.421 31.9118 226.188 31.8795 226.027 31.8311C225.866 31.7826 225.755 31.7148 225.69 31.6286C225.626 31.5425 225.572 31.4283 225.529 31.2873L224.133 27.0663H216.338L215.022 31.1731C214.98 31.325 214.924 31.452 214.854 31.5543C214.784 31.6577 214.672 31.7385 214.517 31.7977C214.362 31.8569 214.143 31.8978 213.86 31.9194C213.575 31.9409 213.204 31.9517 212.744 31.9517C212.253 31.9517 211.868 31.9355 211.59 31.9032C211.311 31.8709 211.12 31.7923 211.012 31.6674C210.905 31.5436 210.868 31.367 210.901 31.1398C210.933 30.9126 211.012 30.61 211.141 30.2309L217.541 11.5949C217.605 11.4108 217.679 11.2622 217.765 11.148C217.85 11.0339 217.987 10.9477 218.174 10.8885C218.361 10.8293 218.621 10.7916 218.952 10.7744C219.283 10.7582 219.722 10.7496 220.267 10.7496C220.898 10.7496 221.4 10.7582 221.774 10.7744C222.149 10.7905 222.44 10.8282 222.649 10.8885C222.858 10.9477 223.008 11.0371 223.098 11.1566C223.188 11.2762 223.266 11.4377 223.331 11.6434L229.747 30.2632L229.749 30.2643ZM220.221 14.8587H220.205L217.27 23.7874H223.157L220.221 14.8587Z" fill="#0066D0"/>
</g>
<defs>
<clipPath id="clip0_4_162">
<rect width="230" height="38" fill="white"/>
</clipPath>
</defs>
</svg>
