<svg xmlns="http://www.w3.org/2000/svg" width="54" height="54" viewBox="0 0 54 54" fill="none" >
<g clip-path="url(#clip0_10_166)">
<path d="M31.5326 46.0639H6.35526M31.5326 39.7394H6.35526M45.025 15.8114H52.4037M1.59633 7.90563H36.3815V52.3885H1.59633V7.90563ZM12.6642 1.58105H25.3134V7.90563H12.6642V1.58105ZM45.025 9.48678H52.4037V44.1033L48.7143 50.7441L45.025 44.1033V9.48678Z" stroke="white" stroke-width="3" stroke-miterlimit="10"/>
<path d="M18.9889 23.7171C21.6086 23.7171 23.7324 21.5934 23.7324 18.9737C23.7324 16.3539 21.6086 14.2302 18.9889 14.2302C16.3692 14.2302 14.2455 16.3539 14.2455 18.9737C14.2455 21.5934 16.3692 23.7171 18.9889 23.7171Z" stroke="white" stroke-width="3" stroke-miterlimit="10"/>
<path d="M12.6643 33.3325V26.8793C12.6643 25.1328 14.0801 23.717 15.8266 23.717H22.1512C23.8977 23.717 25.3135 25.1328 25.3135 26.8793V33.3325H12.6643Z" stroke="white" stroke-width="3" stroke-miterlimit="10"/>
</g>
<defs>
<clipPath id="clip0_10_166">
<rect width="54" height="54" fill="white"/>
</clipPath>
</defs>
</svg>
