<svg width="33" height="33" viewBox="0 0 33 33" fill="none" xmlns="http://www.w3.org/2000/svg">
<g clip-path="url(#clip0_2_77)">
<path d="M27.2232 3.77483C26.5758 3.12612 25.715 2.76883 24.799 2.76883H23.2519V2.45701C23.2519 1.59733 22.5525 0.897919 21.6928 0.897919H10.4673C9.60765 0.897919 8.90823 1.59733 8.90823 2.45701V2.76883H7.35556C5.46837 2.76883 3.93129 4.30585 3.92917 6.19504L3.90354 29.3944C3.90254 30.3113 4.25845 31.1735 4.90572 31.8222C5.55306 32.4709 6.41399 32.8282 7.32993 32.8282H24.7733C26.6606 32.8282 28.1977 31.2912 28.1997 29.402L28.2254 6.20265C28.2265 5.28571 27.8705 4.42347 27.2232 3.77483ZM10.7792 2.76883H21.381V4.63975H10.7792V2.76883ZM26.3308 29.3999C26.3298 30.2587 25.6312 30.9573 24.7733 30.9573H7.32993C6.91359 30.9573 6.52226 30.7949 6.22802 30.5C5.93379 30.2051 5.77202 29.8132 5.77246 29.3965L5.79809 6.19716C5.79902 5.33835 6.49768 4.63975 7.35556 4.63975H8.90823V4.95157C8.90823 5.81125 9.60765 6.51066 10.4673 6.51066H21.6928C22.5525 6.51066 23.2519 5.81125 23.2519 4.95157V4.63975H24.799C25.2154 4.63975 25.6067 4.80215 25.9009 5.097C26.1952 5.39186 26.357 5.78381 26.3565 6.20053L26.3308 29.3999Z" fill="#0066D0"/>
<path d="M16.3825 13.3707H23.0287C23.5453 13.3707 23.9641 12.9519 23.9641 12.4352C23.9641 11.9186 23.5453 11.4998 23.0287 11.4998H16.3825C15.8659 11.4998 15.447 11.9186 15.447 12.4352C15.447 12.9519 15.8659 13.3707 16.3825 13.3707Z" fill="#0066D0"/>
<path d="M16.3825 19.6071H23.0287C23.5453 19.6071 23.9641 19.1882 23.9641 18.6716C23.9641 18.155 23.5453 17.7361 23.0287 17.7361H16.3825C15.8659 17.7361 15.447 18.155 15.447 18.6716C15.447 19.1882 15.8659 19.6071 16.3825 19.6071Z" fill="#0066D0"/>
<path d="M23.0554 23.9725H16.3825C15.8659 23.9725 15.447 24.3914 15.447 24.908C15.447 25.4246 15.8659 25.8434 16.3825 25.8434H23.0554C23.572 25.8434 23.9909 25.4246 23.9909 24.908C23.9909 24.3914 23.5721 23.9725 23.0554 23.9725Z" fill="#0066D0"/>
<path d="M12.401 9.88809L10.2437 12.0454L9.73504 11.5367C9.36971 11.1714 8.77745 11.1714 8.41212 11.5367C8.04679 11.9019 8.04679 12.4943 8.41212 12.8596L9.58225 14.0298C9.75768 14.2052 9.9956 14.3038 10.2437 14.3038C10.4918 14.3038 10.7297 14.2053 10.9052 14.0298L13.724 11.2111C14.0893 10.8458 14.0893 10.2535 13.724 9.88816C13.3586 9.52277 12.7664 9.52277 12.401 9.88809Z" fill="#0066D0"/>
<path d="M12.401 16.6008L10.2437 18.758L9.73504 18.2494C9.36971 17.8841 8.77745 17.8841 8.41212 18.2494C8.04679 18.6147 8.04679 19.2069 8.41212 19.5723L9.58225 20.7425C9.75768 20.918 9.9956 21.0166 10.2437 21.0166C10.4918 21.0166 10.7298 20.918 10.9052 20.7425L13.724 17.9237C14.0893 17.5585 14.0893 16.9661 13.724 16.6008C13.3586 16.2355 12.7663 16.2355 12.401 16.6008Z" fill="#0066D0"/>
<path d="M12.401 22.8371L10.2437 24.9944L9.73504 24.4858C9.36971 24.1205 8.77745 24.1205 8.41212 24.4858C8.04679 24.8511 8.04679 25.4433 8.41212 25.8087L9.58225 26.9789C9.75768 27.1543 9.9956 27.2529 10.2437 27.2529C10.4918 27.2529 10.7298 27.1544 10.9052 26.9789L13.724 24.1601C14.0893 23.7949 14.0893 23.2025 13.724 22.8372C13.3586 22.4719 12.7663 22.4719 12.401 22.8371Z" fill="#0066D0"/>
</g>
<defs>
<clipPath id="clip0_2_77">
<rect width="31.9303" height="31.9303" fill="white" transform="translate(0.0993347 0.897919)"/>
</clipPath>
</defs>
</svg>
